<svg width="56" height="56" viewBox="0 0 56 56" fill="none" xmlns="http://www.w3.org/2000/svg">
<rect width="56" height="56" rx="16" fill="#00ABEF"/>
<path d="M27.625 16.375C34.0469 16.375 39.25 21.5781 39.25 28C39.25 34.4219 34.0469 39.625 27.625 39.625C21.2031 39.625 16 34.4219 16 28C16 21.5781 21.2031 16.375 27.625 16.375ZM33.2969 24.3438C33.4844 23.5938 33.0156 23.2656 32.5 23.4531L21.2969 27.7656C20.5469 28.0469 20.5469 28.5156 21.1562 28.7031L24.0156 29.5938L30.6719 25.375C31 25.1875 31.2812 25.3281 31.0469 25.5156L25.6562 30.3906L25.4688 33.3438C25.75 33.3438 25.8906 33.2031 26.0312 33.0625L27.4375 31.7031L30.3438 33.8594C30.9062 34.1406 31.2812 34 31.4219 33.3438L33.2969 24.3438Z" fill="white"/>
</svg>
