<svg width="14" height="14" viewBox="0 0 14 14" fill="none" xmlns="http://www.w3.org/2000/svg">
<path d="M9.19967 10.1333L10.133 9.19998L7.66634 6.73331V3.66665H6.33301V7.26665L9.19967 10.1333ZM6.99967 13.6666C6.07745 13.6666 5.21079 13.4916 4.39967 13.1416C3.58856 12.7916 2.88301 12.3166 2.28301 11.7166C1.68301 11.1166 1.20801 10.4111 0.858008 9.59998C0.508008 8.78887 0.333008 7.9222 0.333008 6.99998C0.333008 6.07776 0.508008 5.21109 0.858008 4.39998C1.20801 3.58887 1.68301 2.88331 2.28301 2.28331C2.88301 1.68331 3.58856 1.20831 4.39967 0.858313C5.21079 0.508313 6.07745 0.333313 6.99967 0.333313C7.9219 0.333313 8.78856 0.508313 9.59967 0.858313C10.4108 1.20831 11.1163 1.68331 11.7163 2.28331C12.3163 2.88331 12.7913 3.58887 13.1413 4.39998C13.4913 5.21109 13.6663 6.07776 13.6663 6.99998C13.6663 7.9222 13.4913 8.78887 13.1413 9.59998C12.7913 10.4111 12.3163 11.1166 11.7163 11.7166C11.1163 12.3166 10.4108 12.7916 9.59967 13.1416C8.78856 13.4916 7.9219 13.6666 6.99967 13.6666ZM6.99967 12.3333C8.47745 12.3333 9.73579 11.8139 10.7747 10.775C11.8136 9.73609 12.333 8.47776 12.333 6.99998C12.333 5.5222 11.8136 4.26387 10.7747 3.22498C9.73579 2.18609 8.47745 1.66665 6.99967 1.66665C5.5219 1.66665 4.26356 2.18609 3.22467 3.22498C2.18579 4.26387 1.66634 5.5222 1.66634 6.99998C1.66634 8.47776 2.18579 9.73609 3.22467 10.775C4.26356 11.8139 5.5219 12.3333 6.99967 12.3333Z" fill="#121212"/>
</svg>
