<?xml version="1.0" encoding="utf-8"?>
<!-- Generator: Adobe Illustrator 25.0.1, SVG Export Plug-In . SVG Version: 6.00 Build 0)  -->
<svg version="1.1" id="sappo_x5F_svg" xmlns="http://www.w3.org/2000/svg" xmlns:xlink="http://www.w3.org/1999/xlink" x="0px"
	 y="0px" width="120px" height="60px" viewBox="0 0 120 60" style="enable-background:new 0 0 120 60;" xml:space="preserve">
<style type="text/css">
	.st0{fill:#FFFFFF;}
</style>
<path id="all" class="st0" d="M75,35.6l-11.6,20h23.2L75,35.6z M76.2,52.5c0,0.7-0.6,1.2-1.2,1.2s-1.2-0.6-1.2-1.2v-0.6
	c0-0.7,0.6-1.2,1.2-1.2s1.2,0.6,1.2,1.2V52.5z M75,49.4C75,49.4,75,49.4,75,49.4c-0.7,0-1.2-0.6-1.3-1.2v-6.2c0-0.7,0.6-1.2,1.2-1.2
	s1.2,0.6,1.2,1.2v6.2C76.2,48.8,75.7,49.4,75,49.4z M75,35.6l-11.6,20h23.2L75,35.6z M76.2,52.5c0,0.7-0.6,1.2-1.2,1.2
	s-1.2-0.6-1.2-1.2v-0.6c0-0.7,0.6-1.2,1.2-1.2s1.2,0.6,1.2,1.2V52.5z M75,49.4C75,49.4,75,49.4,75,49.4c-0.7,0-1.2-0.6-1.3-1.2v-6.2
	c0-0.7,0.6-1.2,1.2-1.2s1.2,0.6,1.2,1.2v6.2C76.2,48.8,75.7,49.4,75,49.4z M75,35.6l-11.6,20h23.2L75,35.6z M76.2,52.5
	c0,0.7-0.6,1.2-1.2,1.2s-1.2-0.6-1.2-1.2v-0.6c0-0.7,0.6-1.2,1.2-1.2s1.2,0.6,1.2,1.2V52.5z M75,49.4C75,49.4,75,49.4,75,49.4
	c-0.7,0-1.2-0.6-1.3-1.2v-6.2c0-0.7,0.6-1.2,1.2-1.2s1.2,0.6,1.2,1.2v6.2C76.2,48.8,75.7,49.4,75,49.4z M113,37.1
	c-2.1-2.1-5-3.3-8-3.3c-3,0-5.8,1.2-8,3.3c-2.1,2.1-3.3,5-3.3,8c0,3,1.2,5.8,3.3,8c2.1,2.1,5,3.3,8,3.3c3,0,5.8-1.2,8-3.3
	c2.1-2.1,3.3-5,3.3-8C116.2,42,115.1,39.2,113,37.1z M112.1,42.2l-7.5,7.5c-0.2,0.2-0.6,0.4-0.9,0.4s-0.6-0.1-0.9-0.4l-3.8-3.8
	c-0.5-0.5-0.5-1.3,0-1.8s1.3-0.5,1.8,0l2.9,2.9l6.6-6.6c0.5-0.5,1.3-0.5,1.8,0C112.6,40.9,112.6,41.7,112.1,42.2z M113,37.1
	c-2.1-2.1-5-3.3-8-3.3c-3,0-5.8,1.2-8,3.3c-2.1,2.1-3.3,5-3.3,8c0,3,1.2,5.8,3.3,8c2.1,2.1,5,3.3,8,3.3c3,0,5.8-1.2,8-3.3
	c2.1-2.1,3.3-5,3.3-8C116.2,42,115.1,39.2,113,37.1z M112.1,42.2l-7.5,7.5c-0.2,0.2-0.6,0.4-0.9,0.4s-0.6-0.1-0.9-0.4l-3.8-3.8
	c-0.5-0.5-0.5-1.3,0-1.8s1.3-0.5,1.8,0l2.9,2.9l6.6-6.6c0.5-0.5,1.3-0.5,1.8,0C112.6,40.9,112.6,41.7,112.1,42.2z M75,35.6l-11.6,20
	h23.2L75,35.6z M76.2,52.5c0,0.7-0.6,1.2-1.2,1.2s-1.2-0.6-1.2-1.2v-0.6c0-0.7,0.6-1.2,1.2-1.2s1.2,0.6,1.2,1.2V52.5z M75,49.4
	C75,49.4,75,49.4,75,49.4c-0.7,0-1.2-0.6-1.3-1.2v-6.2c0-0.7,0.6-1.2,1.2-1.2s1.2,0.6,1.2,1.2v6.2C76.2,48.8,75.7,49.4,75,49.4z
	 M79.4,4.2l-3.5,2l4.7,0L79.4,4.2z M82,15.6c-1.1,0-2,0.8-2,1.9c0,1,0.9,1.9,2,1.9h4.2v-3.8H82z M82,13.1h4.2V8.8H63.8v17.5h22.5
	v-4.4H82c-2.5,0-4.5-2-4.5-4.4C77.5,15.1,79.5,13.1,82,13.1z M75,35.6l-11.6,20h23.2L75,35.6z M76.2,52.5c0,0.7-0.6,1.2-1.2,1.2
	s-1.2-0.6-1.2-1.2v-0.6c0-0.7,0.6-1.2,1.2-1.2s1.2,0.6,1.2,1.2V52.5z M75,49.4C75,49.4,75,49.4,75,49.4c-0.7,0-1.2-0.6-1.3-1.2v-6.2
	c0-0.7,0.6-1.2,1.2-1.2s1.2,0.6,1.2,1.2v6.2C76.2,48.8,75.7,49.4,75,49.4z M103.1,21.3v5h3.8v-5H103.1z M96.2,3.8v2.5h17.5V3.8H96.2
	z M111.5,14.1l-0.2-0.1l-0.2,0.1c-1.8,1.1-4,1.1-5.8,0L105,14l-0.2,0.1c-1.8,1.1-4,1.1-5.8,0L98.8,14l-0.2,0.1
	c-0.7,0.4-1.5,0.7-2.3,0.8v11.4h4.4V20c0-0.7,0.5-1.2,1.2-1.2h6.2c0.7,0,1.2,0.6,1.2,1.2v6.2h4.4V14.9
	C113,14.8,112.2,14.5,111.5,14.1z M113,37.1c-2.1-2.1-5-3.3-8-3.3c-3,0-5.8,1.2-8,3.3c-2.1,2.1-3.3,5-3.3,8c0,3,1.2,5.8,3.3,8
	c2.1,2.1,5,3.3,8,3.3c3,0,5.8-1.2,8-3.3c2.1-2.1,3.3-5,3.3-8C116.2,42,115.1,39.2,113,37.1z M112.1,42.2l-7.5,7.5
	c-0.2,0.2-0.6,0.4-0.9,0.4s-0.6-0.1-0.9-0.4l-3.8-3.8c-0.5-0.5-0.5-1.3,0-1.8s1.3-0.5,1.8,0l2.9,2.9l6.6-6.6c0.5-0.5,1.3-0.5,1.8,0
	C112.6,40.9,112.6,41.7,112.1,42.2z M93.8,8.8v3L94,12c1,0.6,2.2,0.6,3.2,0l0.9-0.5c0.4-0.2,0.9-0.2,1.3,0l0.9,0.5
	c1,0.6,2.2,0.6,3.2,0l0.9-0.5c0.4-0.2,0.9-0.2,1.3,0l0.9,0.5c1,0.6,2.2,0.6,3.2,0l0.9-0.5c0.4-0.2,0.9-0.2,1.3,0l0.9,0.5
	c1,0.6,2.2,0.6,3.2,0l0.3-0.2v-3H93.8z M93.8,8.8v3L94,12c1,0.6,2.2,0.6,3.2,0l0.9-0.5c0.4-0.2,0.9-0.2,1.3,0l0.9,0.5
	c1,0.6,2.2,0.6,3.2,0l0.9-0.5c0.4-0.2,0.9-0.2,1.3,0l0.9,0.5c1,0.6,2.2,0.6,3.2,0l0.9-0.5c0.4-0.2,0.9-0.2,1.3,0l0.9,0.5
	c1,0.6,2.2,0.6,3.2,0l0.3-0.2v-3H93.8z M111.5,14.1l-0.2-0.1l-0.2,0.1c-1.8,1.1-4,1.1-5.8,0L105,14l-0.2,0.1c-1.8,1.1-4,1.1-5.8,0
	L98.8,14l-0.2,0.1c-0.7,0.4-1.5,0.7-2.3,0.8v11.4h4.4V20c0-0.7,0.5-1.2,1.2-1.2h6.2c0.7,0,1.2,0.6,1.2,1.2v6.2h4.4V14.9
	C113,14.8,112.2,14.5,111.5,14.1z M96.2,3.8v2.5h17.5V3.8H96.2z M103.1,21.3v5h3.8v-5H103.1z M113,37.1c-2.1-2.1-5-3.3-8-3.3
	c-3,0-5.8,1.2-8,3.3c-2.1,2.1-3.3,5-3.3,8c0,3,1.2,5.8,3.3,8c2.1,2.1,5,3.3,8,3.3c3,0,5.8-1.2,8-3.3c2.1-2.1,3.3-5,3.3-8
	C116.2,42,115.1,39.2,113,37.1z M112.1,42.2l-7.5,7.5c-0.2,0.2-0.6,0.4-0.9,0.4s-0.6-0.1-0.9-0.4l-3.8-3.8c-0.5-0.5-0.5-1.3,0-1.8
	s1.3-0.5,1.8,0l2.9,2.9l6.6-6.6c0.5-0.5,1.3-0.5,1.8,0C112.6,40.9,112.6,41.7,112.1,42.2z M75,35.6l-11.6,20h23.2L75,35.6z
	 M76.2,52.5c0,0.7-0.6,1.2-1.2,1.2s-1.2-0.6-1.2-1.2v-0.6c0-0.7,0.6-1.2,1.2-1.2s1.2,0.6,1.2,1.2V52.5z M75,49.4
	C75,49.4,75,49.4,75,49.4c-0.7,0-1.2-0.6-1.3-1.2v-6.2c0-0.7,0.6-1.2,1.2-1.2s1.2,0.6,1.2,1.2v6.2C76.2,48.8,75.7,49.4,75,49.4z
	 M82,13.1h4.2V8.8H63.8v17.5h22.5v-4.4H82c-2.5,0-4.5-2-4.5-4.4C77.5,15.1,79.5,13.1,82,13.1z M82,15.6c-1.1,0-2,0.8-2,1.9
	c0,1,0.9,1.9,2,1.9h4.2v-3.8H82z M79.4,4.2l-3.5,2l4.7,0L79.4,4.2z M15,9.1c-1,0-1.9,0.8-1.9,1.9c0,1,0.8,1.9,1.9,1.9
	s1.9-0.8,1.9-1.9C16.9,9.9,16,9.1,15,9.1z M15,9.1c-1,0-1.9,0.8-1.9,1.9c0,1,0.8,1.9,1.9,1.9s1.9-0.8,1.9-1.9
	C16.9,9.9,16,9.1,15,9.1z M15,9.1c-1,0-1.9,0.8-1.9,1.9c0,1,0.8,1.9,1.9,1.9s1.9-0.8,1.9-1.9C16.9,9.9,16,9.1,15,9.1z M15,9.1
	c-1,0-1.9,0.8-1.9,1.9c0,1,0.8,1.9,1.9,1.9s1.9-0.8,1.9-1.9C16.9,9.9,16,9.1,15,9.1z M15,9.1c-1,0-1.9,0.8-1.9,1.9
	c0,1,0.8,1.9,1.9,1.9s1.9-0.8,1.9-1.9C16.9,9.9,16,9.1,15,9.1z M15,9.1c-1,0-1.9,0.8-1.9,1.9c0,1,0.8,1.9,1.9,1.9s1.9-0.8,1.9-1.9
	C16.9,9.9,16,9.1,15,9.1z M15,4.1c-3.8,0-6.9,3-6.9,6.7c0,4.4,5,8.5,6.9,9.9c1.9-1.4,6.9-5.5,6.9-9.9C21.9,7.1,18.8,4.1,15,4.1z
	 M15,15.3c-2.4,0-4.4-2-4.4-4.4c0-2.4,2-4.4,4.4-4.4s4.4,2,4.4,4.4C19.4,13.4,17.4,15.3,15,15.3z M15,9.1c-1,0-1.9,0.8-1.9,1.9
	c0,1,0.8,1.9,1.9,1.9s1.9-0.8,1.9-1.9C16.9,9.9,16,9.1,15,9.1z M15,9.1c-1,0-1.9,0.8-1.9,1.9c0,1,0.8,1.9,1.9,1.9s1.9-0.8,1.9-1.9
	C16.9,9.9,16,9.1,15,9.1z M15,9.1c-1,0-1.9,0.8-1.9,1.9c0,1,0.8,1.9,1.9,1.9s1.9-0.8,1.9-1.9C16.9,9.9,16,9.1,15,9.1z M15,9.1
	c-1,0-1.9,0.8-1.9,1.9c0,1,0.8,1.9,1.9,1.9s1.9-0.8,1.9-1.9C16.9,9.9,16,9.1,15,9.1z M15,9.1c-1,0-1.9,0.8-1.9,1.9
	c0,1,0.8,1.9,1.9,1.9s1.9-0.8,1.9-1.9C16.9,9.9,16,9.1,15,9.1z M15,9.1c-1,0-1.9,0.8-1.9,1.9c0,1,0.8,1.9,1.9,1.9s1.9-0.8,1.9-1.9
	C16.9,9.9,16,9.1,15,9.1z M15,9.1c-1,0-1.9,0.8-1.9,1.9c0,1,0.8,1.9,1.9,1.9s1.9-0.8,1.9-1.9C16.9,9.9,16,9.1,15,9.1z M38.1,20.6
	c-0.7,0-1.2,0.6-1.2,1.2s0.6,1.2,1.2,1.2s1.2-0.6,1.2-1.2S38.8,20.6,38.1,20.6z M33.8,6.9v13.8h0.8c0.5-1.5,1.9-2.5,3.5-2.5
	c1.6,0,3,1,3.5,2.5h5.9V6.9H33.8z M52.8,20.6c-0.7,0-1.2,0.6-1.2,1.2s0.6,1.2,1.2,1.2s1.2-0.6,1.2-1.2S53.5,20.6,52.8,20.6z
	 M52.6,14.1H50v5.4c0.7-0.8,1.7-1.3,2.8-1.3c1.5,0,2.8,0.9,3.4,2.2v-2.7L52.6,14.1z M79.4,4.2l-3.5,2l4.7,0L79.4,4.2z M82,15.6
	c-1.1,0-2,0.8-2,1.9c0,1,0.9,1.9,2,1.9h4.2v-3.8H82z M82,13.1h4.2V8.8H63.8v17.5h22.5v-4.4H82c-2.5,0-4.5-2-4.5-4.4
	C77.5,15.1,79.5,13.1,82,13.1z M75,35.6l-11.6,20h23.2L75,35.6z M76.2,52.5c0,0.7-0.6,1.2-1.2,1.2s-1.2-0.6-1.2-1.2v-0.6
	c0-0.7,0.6-1.2,1.2-1.2s1.2,0.6,1.2,1.2V52.5z M75,49.4C75,49.4,75,49.4,75,49.4c-0.7,0-1.2-0.6-1.3-1.2v-6.2c0-0.7,0.6-1.2,1.2-1.2
	s1.2,0.6,1.2,1.2v6.2C76.2,48.8,75.7,49.4,75,49.4z M103.1,21.3v5h3.8v-5H103.1z M96.2,3.8v2.5h17.5V3.8H96.2z M111.5,14.1l-0.2-0.1
	l-0.2,0.1c-1.8,1.1-4,1.1-5.8,0L105,14l-0.2,0.1c-1.8,1.1-4,1.1-5.8,0L98.8,14l-0.2,0.1c-0.7,0.4-1.5,0.7-2.3,0.8v11.4h4.4V20
	c0-0.7,0.5-1.2,1.2-1.2h6.2c0.7,0,1.2,0.6,1.2,1.2v6.2h4.4V14.9C113,14.8,112.2,14.5,111.5,14.1z M113,37.1c-2.1-2.1-5-3.3-8-3.3
	c-3,0-5.8,1.2-8,3.3c-2.1,2.1-3.3,5-3.3,8c0,3,1.2,5.8,3.3,8c2.1,2.1,5,3.3,8,3.3c3,0,5.8-1.2,8-3.3c2.1-2.1,3.3-5,3.3-8
	C116.2,42,115.1,39.2,113,37.1z M112.1,42.2l-7.5,7.5c-0.2,0.2-0.6,0.4-0.9,0.4s-0.6-0.1-0.9-0.4l-3.8-3.8c-0.5-0.5-0.5-1.3,0-1.8
	s1.3-0.5,1.8,0l2.9,2.9l6.6-6.6c0.5-0.5,1.3-0.5,1.8,0C112.6,40.9,112.6,41.7,112.1,42.2z M93.8,8.8v3L94,12c1,0.6,2.2,0.6,3.2,0
	l0.9-0.5c0.4-0.2,0.9-0.2,1.3,0l0.9,0.5c1,0.6,2.2,0.6,3.2,0l0.9-0.5c0.4-0.2,0.9-0.2,1.3,0l0.9,0.5c1,0.6,2.2,0.6,3.2,0l0.9-0.5
	c0.4-0.2,0.9-0.2,1.3,0l0.9,0.5c1,0.6,2.2,0.6,3.2,0l0.3-0.2v-3H93.8z M93.8,8.8v3L94,12c1,0.6,2.2,0.6,3.2,0l0.9-0.5
	c0.4-0.2,0.9-0.2,1.3,0l0.9,0.5c1,0.6,2.2,0.6,3.2,0l0.9-0.5c0.4-0.2,0.9-0.2,1.3,0l0.9,0.5c1,0.6,2.2,0.6,3.2,0l0.9-0.5
	c0.4-0.2,0.9-0.2,1.3,0l0.9,0.5c1,0.6,2.2,0.6,3.2,0l0.3-0.2v-3H93.8z M111.5,14.1l-0.2-0.1l-0.2,0.1c-1.8,1.1-4,1.1-5.8,0L105,14
	l-0.2,0.1c-1.8,1.1-4,1.1-5.8,0L98.8,14l-0.2,0.1c-0.7,0.4-1.5,0.7-2.3,0.8v11.4h4.4V20c0-0.7,0.5-1.2,1.2-1.2h6.2
	c0.7,0,1.2,0.6,1.2,1.2v6.2h4.4V14.9C113,14.8,112.2,14.5,111.5,14.1z M96.2,3.8v2.5h17.5V3.8H96.2z M103.1,21.3v5h3.8v-5H103.1z
	 M113,37.1c-2.1-2.1-5-3.3-8-3.3c-3,0-5.8,1.2-8,3.3c-2.1,2.1-3.3,5-3.3,8c0,3,1.2,5.8,3.3,8c2.1,2.1,5,3.3,8,3.3c3,0,5.8-1.2,8-3.3
	c2.1-2.1,3.3-5,3.3-8C116.2,42,115.1,39.2,113,37.1z M112.1,42.2l-7.5,7.5c-0.2,0.2-0.6,0.4-0.9,0.4s-0.6-0.1-0.9-0.4l-3.8-3.8
	c-0.5-0.5-0.5-1.3,0-1.8s1.3-0.5,1.8,0l2.9,2.9l6.6-6.6c0.5-0.5,1.3-0.5,1.8,0C112.6,40.9,112.6,41.7,112.1,42.2z M75,35.6l-11.6,20
	h23.2L75,35.6z M76.2,52.5c0,0.7-0.6,1.2-1.2,1.2s-1.2-0.6-1.2-1.2v-0.6c0-0.7,0.6-1.2,1.2-1.2s1.2,0.6,1.2,1.2V52.5z M75,49.4
	C75,49.4,75,49.4,75,49.4c-0.7,0-1.2-0.6-1.3-1.2v-6.2c0-0.7,0.6-1.2,1.2-1.2s1.2,0.6,1.2,1.2v6.2C76.2,48.8,75.7,49.4,75,49.4z
	 M52.6,14.1H50v5.4c0.7-0.8,1.7-1.3,2.8-1.3c1.5,0,2.8,0.9,3.4,2.2v-2.7L52.6,14.1z M52.8,20.6c-0.7,0-1.2,0.6-1.2,1.2
	s0.6,1.2,1.2,1.2s1.2-0.6,1.2-1.2S53.5,20.6,52.8,20.6z M33.8,6.9v13.8h0.8c0.5-1.5,1.9-2.5,3.5-2.5c1.6,0,3,1,3.5,2.5h5.9V6.9H33.8
	z M38.1,20.6c-0.7,0-1.2,0.6-1.2,1.2s0.6,1.2,1.2,1.2s1.2-0.6,1.2-1.2S38.8,20.6,38.1,20.6z M15,9.1c-1,0-1.9,0.8-1.9,1.9
	c0,1,0.8,1.9,1.9,1.9s1.9-0.8,1.9-1.9C16.9,9.9,16,9.1,15,9.1z M15,9.1c-1,0-1.9,0.8-1.9,1.9c0,1,0.8,1.9,1.9,1.9s1.9-0.8,1.9-1.9
	C16.9,9.9,16,9.1,15,9.1z M15,9.1c-1,0-1.9,0.8-1.9,1.9c0,1,0.8,1.9,1.9,1.9s1.9-0.8,1.9-1.9C16.9,9.9,16,9.1,15,9.1z M15,9.1
	c-1,0-1.9,0.8-1.9,1.9c0,1,0.8,1.9,1.9,1.9s1.9-0.8,1.9-1.9C16.9,9.9,16,9.1,15,9.1z M15,9.1c-1,0-1.9,0.8-1.9,1.9
	c0,1,0.8,1.9,1.9,1.9s1.9-0.8,1.9-1.9C16.9,9.9,16,9.1,15,9.1z M15,9.1c-1,0-1.9,0.8-1.9,1.9c0,1,0.8,1.9,1.9,1.9s1.9-0.8,1.9-1.9
	C16.9,9.9,16,9.1,15,9.1z M15,4.1c-3.8,0-6.9,3-6.9,6.7c0,4.4,5,8.5,6.9,9.9c1.9-1.4,6.9-5.5,6.9-9.9C21.9,7.1,18.8,4.1,15,4.1z
	 M15,15.3c-2.4,0-4.4-2-4.4-4.4c0-2.4,2-4.4,4.4-4.4s4.4,2,4.4,4.4C19.4,13.4,17.4,15.3,15,15.3z M15,9.1c-1,0-1.9,0.8-1.9,1.9
	c0,1,0.8,1.9,1.9,1.9s1.9-0.8,1.9-1.9C16.9,9.9,16,9.1,15,9.1z M15,9.1c-1,0-1.9,0.8-1.9,1.9c0,1,0.8,1.9,1.9,1.9s1.9-0.8,1.9-1.9
	C16.9,9.9,16,9.1,15,9.1z M15,9.1c-1,0-1.9,0.8-1.9,1.9c0,1,0.8,1.9,1.9,1.9s1.9-0.8,1.9-1.9C16.9,9.9,16,9.1,15,9.1z M15,9.1
	c-1,0-1.9,0.8-1.9,1.9c0,1,0.8,1.9,1.9,1.9s1.9-0.8,1.9-1.9C16.9,9.9,16,9.1,15,9.1z M15,9.1c-1,0-1.9,0.8-1.9,1.9
	c0,1,0.8,1.9,1.9,1.9s1.9-0.8,1.9-1.9C16.9,9.9,16,9.1,15,9.1z M15,9.1c-1,0-1.9,0.8-1.9,1.9c0,1,0.8,1.9,1.9,1.9s1.9-0.8,1.9-1.9
	C16.9,9.9,16,9.1,15,9.1z M15,9.1c-1,0-1.9,0.8-1.9,1.9c0,1,0.8,1.9,1.9,1.9s1.9-0.8,1.9-1.9C16.9,9.9,16,9.1,15,9.1z M82,13.1h4.2
	V8.8H63.8v17.5h22.5v-4.4H82c-2.5,0-4.5-2-4.5-4.4C77.5,15.1,79.5,13.1,82,13.1z M82,15.6c-1.1,0-2,0.8-2,1.9c0,1,0.9,1.9,2,1.9h4.2
	v-3.8H82z M79.4,4.2l-3.5,2l4.7,0L79.4,4.2z M15,9.1c-1,0-1.9,0.8-1.9,1.9c0,1,0.8,1.9,1.9,1.9s1.9-0.8,1.9-1.9
	C16.9,9.9,16,9.1,15,9.1z M15,9.1c-1,0-1.9,0.8-1.9,1.9c0,1,0.8,1.9,1.9,1.9s1.9-0.8,1.9-1.9C16.9,9.9,16,9.1,15,9.1z M15,9.1
	c-1,0-1.9,0.8-1.9,1.9c0,1,0.8,1.9,1.9,1.9s1.9-0.8,1.9-1.9C16.9,9.9,16,9.1,15,9.1z M15,9.1c-1,0-1.9,0.8-1.9,1.9
	c0,1,0.8,1.9,1.9,1.9s1.9-0.8,1.9-1.9C16.9,9.9,16,9.1,15,9.1z M15,9.1c-1,0-1.9,0.8-1.9,1.9c0,1,0.8,1.9,1.9,1.9s1.9-0.8,1.9-1.9
	C16.9,9.9,16,9.1,15,9.1z M15,9.1c-1,0-1.9,0.8-1.9,1.9c0,1,0.8,1.9,1.9,1.9s1.9-0.8,1.9-1.9C16.9,9.9,16,9.1,15,9.1z M15,4.1
	c-3.8,0-6.9,3-6.9,6.7c0,4.4,5,8.5,6.9,9.9c1.9-1.4,6.9-5.5,6.9-9.9C21.9,7.1,18.8,4.1,15,4.1z M15,15.3c-2.4,0-4.4-2-4.4-4.4
	c0-2.4,2-4.4,4.4-4.4s4.4,2,4.4,4.4C19.4,13.4,17.4,15.3,15,15.3z M15,9.1c-1,0-1.9,0.8-1.9,1.9c0,1,0.8,1.9,1.9,1.9
	s1.9-0.8,1.9-1.9C16.9,9.9,16,9.1,15,9.1z M15,9.1c-1,0-1.9,0.8-1.9,1.9c0,1,0.8,1.9,1.9,1.9s1.9-0.8,1.9-1.9
	C16.9,9.9,16,9.1,15,9.1z M15,9.1c-1,0-1.9,0.8-1.9,1.9c0,1,0.8,1.9,1.9,1.9s1.9-0.8,1.9-1.9C16.9,9.9,16,9.1,15,9.1z M15,9.1
	c-1,0-1.9,0.8-1.9,1.9c0,1,0.8,1.9,1.9,1.9s1.9-0.8,1.9-1.9C16.9,9.9,16,9.1,15,9.1z M15,9.1c-1,0-1.9,0.8-1.9,1.9
	c0,1,0.8,1.9,1.9,1.9s1.9-0.8,1.9-1.9C16.9,9.9,16,9.1,15,9.1z M38.1,20.6c-0.7,0-1.2,0.6-1.2,1.2s0.6,1.2,1.2,1.2s1.2-0.6,1.2-1.2
	S38.8,20.6,38.1,20.6z M33.8,6.9v13.8h0.8c0.5-1.5,1.9-2.5,3.5-2.5c1.6,0,3,1,3.5,2.5h5.9V6.9H33.8z M52.8,20.6
	c-0.7,0-1.2,0.6-1.2,1.2s0.6,1.2,1.2,1.2s1.2-0.6,1.2-1.2S53.5,20.6,52.8,20.6z M52.6,14.1H50v5.4c0.7-0.8,1.7-1.3,2.8-1.3
	c1.5,0,2.8,0.9,3.4,2.2v-2.7L52.6,14.1z M79.4,4.2l-3.5,2l4.7,0L79.4,4.2z M82,15.6c-1.1,0-2,0.8-2,1.9c0,1,0.9,1.9,2,1.9h4.2v-3.8
	H82z M82,13.1h4.2V8.8H63.8v17.5h22.5v-4.4H82c-2.5,0-4.5-2-4.5-4.4C77.5,15.1,79.5,13.1,82,13.1z M75,35.6l-11.6,20h23.2L75,35.6z
	 M76.2,52.5c0,0.7-0.6,1.2-1.2,1.2s-1.2-0.6-1.2-1.2v-0.6c0-0.7,0.6-1.2,1.2-1.2s1.2,0.6,1.2,1.2V52.5z M75,49.4
	C75,49.4,75,49.4,75,49.4c-0.7,0-1.2-0.6-1.3-1.2v-6.2c0-0.7,0.6-1.2,1.2-1.2s1.2,0.6,1.2,1.2v6.2C76.2,48.8,75.7,49.4,75,49.4z
	 M103.1,21.3v5h3.8v-5H103.1z M96.2,3.8v2.5h17.5V3.8H96.2z M111.5,14.1l-0.2-0.1l-0.2,0.1c-1.8,1.1-4,1.1-5.8,0L105,14l-0.2,0.1
	c-1.8,1.1-4,1.1-5.8,0L98.8,14l-0.2,0.1c-0.7,0.4-1.5,0.7-2.3,0.8v11.4h4.4V20c0-0.7,0.5-1.2,1.2-1.2h6.2c0.7,0,1.2,0.6,1.2,1.2v6.2
	h4.4V14.9C113,14.8,112.2,14.5,111.5,14.1z M113,37.1c-2.1-2.1-5-3.3-8-3.3c-3,0-5.8,1.2-8,3.3c-2.1,2.1-3.3,5-3.3,8
	c0,3,1.2,5.8,3.3,8c2.1,2.1,5,3.3,8,3.3c3,0,5.8-1.2,8-3.3c2.1-2.1,3.3-5,3.3-8C116.2,42,115.1,39.2,113,37.1z M112.1,42.2l-7.5,7.5
	c-0.2,0.2-0.6,0.4-0.9,0.4s-0.6-0.1-0.9-0.4l-3.8-3.8c-0.5-0.5-0.5-1.3,0-1.8s1.3-0.5,1.8,0l2.9,2.9l6.6-6.6c0.5-0.5,1.3-0.5,1.8,0
	C112.6,40.9,112.6,41.7,112.1,42.2z M93.8,8.8v3L94,12c1,0.6,2.2,0.6,3.2,0l0.9-0.5c0.4-0.2,0.9-0.2,1.3,0l0.9,0.5
	c1,0.6,2.2,0.6,3.2,0l0.9-0.5c0.4-0.2,0.9-0.2,1.3,0l0.9,0.5c1,0.6,2.2,0.6,3.2,0l0.9-0.5c0.4-0.2,0.9-0.2,1.3,0l0.9,0.5
	c1,0.6,2.2,0.6,3.2,0l0.3-0.2v-3H93.8z M93.8,8.8v3L94,12c1,0.6,2.2,0.6,3.2,0l0.9-0.5c0.4-0.2,0.9-0.2,1.3,0l0.9,0.5
	c1,0.6,2.2,0.6,3.2,0l0.9-0.5c0.4-0.2,0.9-0.2,1.3,0l0.9,0.5c1,0.6,2.2,0.6,3.2,0l0.9-0.5c0.4-0.2,0.9-0.2,1.3,0l0.9,0.5
	c1,0.6,2.2,0.6,3.2,0l0.3-0.2v-3H93.8z M111.5,14.1l-0.2-0.1l-0.2,0.1c-1.8,1.1-4,1.1-5.8,0L105,14l-0.2,0.1c-1.8,1.1-4,1.1-5.8,0
	L98.8,14l-0.2,0.1c-0.7,0.4-1.5,0.7-2.3,0.8v11.4h4.4V20c0-0.7,0.5-1.2,1.2-1.2h6.2c0.7,0,1.2,0.6,1.2,1.2v6.2h4.4V14.9
	C113,14.8,112.2,14.5,111.5,14.1z M96.2,3.8v2.5h17.5V3.8H96.2z M103.1,21.3v5h3.8v-5H103.1z M113,37.1c-2.1-2.1-5-3.3-8-3.3
	c-3,0-5.8,1.2-8,3.3c-2.1,2.1-3.3,5-3.3,8c0,3,1.2,5.8,3.3,8c2.1,2.1,5,3.3,8,3.3c3,0,5.8-1.2,8-3.3c2.1-2.1,3.3-5,3.3-8
	C116.2,42,115.1,39.2,113,37.1z M112.1,42.2l-7.5,7.5c-0.2,0.2-0.6,0.4-0.9,0.4s-0.6-0.1-0.9-0.4l-3.8-3.8c-0.5-0.5-0.5-1.3,0-1.8
	s1.3-0.5,1.8,0l2.9,2.9l6.6-6.6c0.5-0.5,1.3-0.5,1.8,0C112.6,40.9,112.6,41.7,112.1,42.2z M75,35.6l-11.6,20h23.2L75,35.6z
	 M76.2,52.5c0,0.7-0.6,1.2-1.2,1.2s-1.2-0.6-1.2-1.2v-0.6c0-0.7,0.6-1.2,1.2-1.2s1.2,0.6,1.2,1.2V52.5z M75,49.4
	C75,49.4,75,49.4,75,49.4c-0.7,0-1.2-0.6-1.3-1.2v-6.2c0-0.7,0.6-1.2,1.2-1.2s1.2,0.6,1.2,1.2v6.2C76.2,48.8,75.7,49.4,75,49.4z
	 M52.6,14.1H50v5.4c0.7-0.8,1.7-1.3,2.8-1.3c1.5,0,2.8,0.9,3.4,2.2v-2.7L52.6,14.1z M52.8,20.6c-0.7,0-1.2,0.6-1.2,1.2
	s0.6,1.2,1.2,1.2s1.2-0.6,1.2-1.2S53.5,20.6,52.8,20.6z M33.8,6.9v13.8h0.8c0.5-1.5,1.9-2.5,3.5-2.5c1.6,0,3,1,3.5,2.5h5.9V6.9H33.8
	z M38.1,20.6c-0.7,0-1.2,0.6-1.2,1.2s0.6,1.2,1.2,1.2s1.2-0.6,1.2-1.2S38.8,20.6,38.1,20.6z M15,9.1c-1,0-1.9,0.8-1.9,1.9
	c0,1,0.8,1.9,1.9,1.9s1.9-0.8,1.9-1.9C16.9,9.9,16,9.1,15,9.1z M15,9.1c-1,0-1.9,0.8-1.9,1.9c0,1,0.8,1.9,1.9,1.9s1.9-0.8,1.9-1.9
	C16.9,9.9,16,9.1,15,9.1z M15,9.1c-1,0-1.9,0.8-1.9,1.9c0,1,0.8,1.9,1.9,1.9s1.9-0.8,1.9-1.9C16.9,9.9,16,9.1,15,9.1z M15,9.1
	c-1,0-1.9,0.8-1.9,1.9c0,1,0.8,1.9,1.9,1.9s1.9-0.8,1.9-1.9C16.9,9.9,16,9.1,15,9.1z M15,4.1c-3.8,0-6.9,3-6.9,6.7
	c0,4.4,5,8.5,6.9,9.9c1.9-1.4,6.9-5.5,6.9-9.9C21.9,7.1,18.8,4.1,15,4.1z M15,15.3c-2.4,0-4.4-2-4.4-4.4c0-2.4,2-4.4,4.4-4.4
	s4.4,2,4.4,4.4C19.4,13.4,17.4,15.3,15,15.3z M15,9.1c-1,0-1.9,0.8-1.9,1.9c0,1,0.8,1.9,1.9,1.9s1.9-0.8,1.9-1.9
	C16.9,9.9,16,9.1,15,9.1z M15,9.1c-1,0-1.9,0.8-1.9,1.9c0,1,0.8,1.9,1.9,1.9s1.9-0.8,1.9-1.9C16.9,9.9,16,9.1,15,9.1z M15,9.1
	c-1,0-1.9,0.8-1.9,1.9c0,1,0.8,1.9,1.9,1.9s1.9-0.8,1.9-1.9C16.9,9.9,16,9.1,15,9.1z M15,9.1c-1,0-1.9,0.8-1.9,1.9
	c0,1,0.8,1.9,1.9,1.9s1.9-0.8,1.9-1.9C16.9,9.9,16,9.1,15,9.1z M15,9.1c-1,0-1.9,0.8-1.9,1.9c0,1,0.8,1.9,1.9,1.9s1.9-0.8,1.9-1.9
	C16.9,9.9,16,9.1,15,9.1z M82,13.1h4.2V8.8H63.8v17.5h22.5v-4.4H82c-2.5,0-4.5-2-4.5-4.4C77.5,15.1,79.5,13.1,82,13.1z M82,15.6
	c-1.1,0-2,0.8-2,1.9c0,1,0.9,1.9,2,1.9h4.2v-3.8H82z M79.4,4.2l-3.5,2l4.7,0L79.4,4.2z M15,39.3c-1,0-1.9,0.8-1.9,1.9
	c0,1,0.8,1.9,1.9,1.9s1.9-0.8,1.9-1.9C16.9,40.2,16,39.3,15,39.3z M15,9.1c-1,0-1.9,0.8-1.9,1.9c0,1,0.8,1.9,1.9,1.9
	s1.9-0.8,1.9-1.9C16.9,9.9,16,9.1,15,9.1z M15,50.2c-4,0-5.7,1.5-7.4,3.2c2,1.7,4.6,2.8,7.4,2.8s5.4-1.1,7.4-2.8
	C20.8,51.8,19.1,50.2,15,50.2z M15,9.1c-1,0-1.9,0.8-1.9,1.9c0,1,0.8,1.9,1.9,1.9s1.9-0.8,1.9-1.9C16.9,9.9,16,9.1,15,9.1z M15,9.1
	c-1,0-1.9,0.8-1.9,1.9c0,1,0.8,1.9,1.9,1.9s1.9-0.8,1.9-1.9C16.9,9.9,16,9.1,15,9.1z M15,9.1c-1,0-1.9,0.8-1.9,1.9
	c0,1,0.8,1.9,1.9,1.9s1.9-0.8,1.9-1.9C16.9,9.9,16,9.1,15,9.1z M15,4.1c-3.8,0-6.9,3-6.9,6.7c0,4.4,5,8.5,6.9,9.9
	c1.9-1.4,6.9-5.5,6.9-9.9C21.9,7.1,18.8,4.1,15,4.1z M15,15.3c-2.4,0-4.4-2-4.4-4.4c0-2.4,2-4.4,4.4-4.4s4.4,2,4.4,4.4
	C19.4,13.4,17.4,15.3,15,15.3z M15,9.1c-1,0-1.9,0.8-1.9,1.9c0,1,0.8,1.9,1.9,1.9s1.9-0.8,1.9-1.9C16.9,9.9,16,9.1,15,9.1z M15,9.1
	c-1,0-1.9,0.8-1.9,1.9c0,1,0.8,1.9,1.9,1.9s1.9-0.8,1.9-1.9C16.9,9.9,16,9.1,15,9.1z M15,9.1c-1,0-1.9,0.8-1.9,1.9
	c0,1,0.8,1.9,1.9,1.9s1.9-0.8,1.9-1.9C16.9,9.9,16,9.1,15,9.1z M15,39.3c-1,0-1.9,0.8-1.9,1.9c0,1,0.8,1.9,1.9,1.9s1.9-0.8,1.9-1.9
	C16.9,40.2,16,39.3,15,39.3z M15,39.3c-1,0-1.9,0.8-1.9,1.9c0,1,0.8,1.9,1.9,1.9s1.9-0.8,1.9-1.9C16.9,40.2,16,39.3,15,39.3z
	 M15,39.3c-1,0-1.9,0.8-1.9,1.9c0,1,0.8,1.9,1.9,1.9s1.9-0.8,1.9-1.9C16.9,40.2,16,39.3,15,39.3z M15,33.8c-6.2,0-11.2,5-11.2,11.2
	c0,2.5,0.8,4.8,2.2,6.6c1.8-1.8,4.2-3.9,9.1-3.9c5,0,7.3,2.1,9.1,3.9c1.3-1.8,2.2-4.1,2.2-6.6C26.2,38.8,21.2,33.8,15,33.8z
	 M15,45.6c-2.4,0-4.4-2-4.4-4.4c0-2.4,2-4.4,4.4-4.4s4.4,2,4.4,4.4C19.4,43.6,17.4,45.6,15,45.6z M15,39.3c-1,0-1.9,0.8-1.9,1.9
	c0,1,0.8,1.9,1.9,1.9s1.9-0.8,1.9-1.9C16.9,40.2,16,39.3,15,39.3z M15,39.3c-1,0-1.9,0.8-1.9,1.9c0,1,0.8,1.9,1.9,1.9
	s1.9-0.8,1.9-1.9C16.9,40.2,16,39.3,15,39.3z M15,39.3c-1,0-1.9,0.8-1.9,1.9c0,1,0.8,1.9,1.9,1.9s1.9-0.8,1.9-1.9
	C16.9,40.2,16,39.3,15,39.3z M38.1,20.6c-0.7,0-1.2,0.6-1.2,1.2s0.6,1.2,1.2,1.2s1.2-0.6,1.2-1.2S38.8,20.6,38.1,20.6z M33.8,6.9
	v13.8h0.8c0.5-1.5,1.9-2.5,3.5-2.5c1.6,0,3,1,3.5,2.5h5.9V6.9H33.8z M52.8,20.6c-0.7,0-1.2,0.6-1.2,1.2s0.6,1.2,1.2,1.2
	s1.2-0.6,1.2-1.2S53.5,20.6,52.8,20.6z M52.6,14.1H50v5.4c0.7-0.8,1.7-1.3,2.8-1.3c1.5,0,2.8,0.9,3.4,2.2v-2.7L52.6,14.1z M79.4,4.2
	l-3.5,2l4.7,0L79.4,4.2z M82,15.6c-1.1,0-2,0.8-2,1.9c0,1,0.9,1.9,2,1.9h4.2v-3.8H82z M82,13.1h4.2V8.8H63.8v17.5h22.5v-4.4H82
	c-2.5,0-4.5-2-4.5-4.4C77.5,15.1,79.5,13.1,82,13.1z M75,35.6l-11.6,20h23.2L75,35.6z M76.2,52.5c0,0.7-0.6,1.2-1.2,1.2
	s-1.2-0.6-1.2-1.2v-0.6c0-0.7,0.6-1.2,1.2-1.2s1.2,0.6,1.2,1.2V52.5z M75,49.4C75,49.4,75,49.4,75,49.4c-0.7,0-1.2-0.6-1.3-1.2v-6.2
	c0-0.7,0.6-1.2,1.2-1.2s1.2,0.6,1.2,1.2v6.2C76.2,48.8,75.7,49.4,75,49.4z M103.1,21.3v5h3.8v-5H103.1z M96.2,3.8v2.5h17.5V3.8H96.2
	z M111.5,14.1l-0.2-0.1l-0.2,0.1c-1.8,1.1-4,1.1-5.8,0L105,14l-0.2,0.1c-1.8,1.1-4,1.1-5.8,0L98.8,14l-0.2,0.1
	c-0.7,0.4-1.5,0.7-2.3,0.8v11.4h4.4V20c0-0.7,0.5-1.2,1.2-1.2h6.2c0.7,0,1.2,0.6,1.2,1.2v6.2h4.4V14.9
	C113,14.8,112.2,14.5,111.5,14.1z M113,37.1c-2.1-2.1-5-3.3-8-3.3c-3,0-5.8,1.2-8,3.3c-2.1,2.1-3.3,5-3.3,8c0,3,1.2,5.8,3.3,8
	c2.1,2.1,5,3.3,8,3.3c3,0,5.8-1.2,8-3.3c2.1-2.1,3.3-5,3.3-8C116.2,42,115.1,39.2,113,37.1z M112.1,42.2l-7.5,7.5
	c-0.2,0.2-0.6,0.4-0.9,0.4s-0.6-0.1-0.9-0.4l-3.8-3.8c-0.5-0.5-0.5-1.3,0-1.8s1.3-0.5,1.8,0l2.9,2.9l6.6-6.6c0.5-0.5,1.3-0.5,1.8,0
	C112.6,40.9,112.6,41.7,112.1,42.2z M93.8,8.8v3L94,12c1,0.6,2.2,0.6,3.2,0l0.9-0.5c0.4-0.2,0.9-0.2,1.3,0l0.9,0.5
	c1,0.6,2.2,0.6,3.2,0l0.9-0.5c0.4-0.2,0.9-0.2,1.3,0l0.9,0.5c1,0.6,2.2,0.6,3.2,0l0.9-0.5c0.4-0.2,0.9-0.2,1.3,0l0.9,0.5
	c1,0.6,2.2,0.6,3.2,0l0.3-0.2v-3H93.8z M93.8,8.8v3L94,12c1,0.6,2.2,0.6,3.2,0l0.9-0.5c0.4-0.2,0.9-0.2,1.3,0l0.9,0.5
	c1,0.6,2.2,0.6,3.2,0l0.9-0.5c0.4-0.2,0.9-0.2,1.3,0l0.9,0.5c1,0.6,2.2,0.6,3.2,0l0.9-0.5c0.4-0.2,0.9-0.2,1.3,0l0.9,0.5
	c1,0.6,2.2,0.6,3.2,0l0.3-0.2v-3H93.8z M111.5,14.1l-0.2-0.1l-0.2,0.1c-1.8,1.1-4,1.1-5.8,0L105,14l-0.2,0.1c-1.8,1.1-4,1.1-5.8,0
	L98.8,14l-0.2,0.1c-0.7,0.4-1.5,0.7-2.3,0.8v11.4h4.4V20c0-0.7,0.5-1.2,1.2-1.2h6.2c0.7,0,1.2,0.6,1.2,1.2v6.2h4.4V14.9
	C113,14.8,112.2,14.5,111.5,14.1z M96.2,3.8v2.5h17.5V3.8H96.2z M103.1,21.3v5h3.8v-5H103.1z M113,37.1c-2.1-2.1-5-3.3-8-3.3
	c-3,0-5.8,1.2-8,3.3c-2.1,2.1-3.3,5-3.3,8c0,3,1.2,5.8,3.3,8c2.1,2.1,5,3.3,8,3.3c3,0,5.8-1.2,8-3.3c2.1-2.1,3.3-5,3.3-8
	C116.2,42,115.1,39.2,113,37.1z M112.1,42.2l-7.5,7.5c-0.2,0.2-0.6,0.4-0.9,0.4s-0.6-0.1-0.9-0.4l-3.8-3.8c-0.5-0.5-0.5-1.3,0-1.8
	s1.3-0.5,1.8,0l2.9,2.9l6.6-6.6c0.5-0.5,1.3-0.5,1.8,0C112.6,40.9,112.6,41.7,112.1,42.2z M75,35.6l-11.6,20h23.2L75,35.6z
	 M76.2,52.5c0,0.7-0.6,1.2-1.2,1.2s-1.2-0.6-1.2-1.2v-0.6c0-0.7,0.6-1.2,1.2-1.2s1.2,0.6,1.2,1.2V52.5z M75,49.4
	C75,49.4,75,49.4,75,49.4c-0.7,0-1.2-0.6-1.3-1.2v-6.2c0-0.7,0.6-1.2,1.2-1.2s1.2,0.6,1.2,1.2v6.2C76.2,48.8,75.7,49.4,75,49.4z
	 M52.6,14.1H50v5.4c0.7-0.8,1.7-1.3,2.8-1.3c1.5,0,2.8,0.9,3.4,2.2v-2.7L52.6,14.1z M52.8,20.6c-0.7,0-1.2,0.6-1.2,1.2
	s0.6,1.2,1.2,1.2s1.2-0.6,1.2-1.2S53.5,20.6,52.8,20.6z M33.8,6.9v13.8h0.8c0.5-1.5,1.9-2.5,3.5-2.5c1.6,0,3,1,3.5,2.5h5.9V6.9H33.8
	z M38.1,20.6c-0.7,0-1.2,0.6-1.2,1.2s0.6,1.2,1.2,1.2s1.2-0.6,1.2-1.2S38.8,20.6,38.1,20.6z M15,39.3c-1,0-1.9,0.8-1.9,1.9
	c0,1,0.8,1.9,1.9,1.9s1.9-0.8,1.9-1.9C16.9,40.2,16,39.3,15,39.3z M15,39.3c-1,0-1.9,0.8-1.9,1.9c0,1,0.8,1.9,1.9,1.9
	s1.9-0.8,1.9-1.9C16.9,40.2,16,39.3,15,39.3z M15,33.8c-6.2,0-11.2,5-11.2,11.2c0,2.5,0.8,4.8,2.2,6.6c1.8-1.8,4.2-3.9,9.1-3.9
	c5,0,7.3,2.1,9.1,3.9c1.3-1.8,2.2-4.1,2.2-6.6C26.2,38.8,21.2,33.8,15,33.8z M15,45.6c-2.4,0-4.4-2-4.4-4.4c0-2.4,2-4.4,4.4-4.4
	s4.4,2,4.4,4.4C19.4,43.6,17.4,45.6,15,45.6z M15,39.3c-1,0-1.9,0.8-1.9,1.9c0,1,0.8,1.9,1.9,1.9s1.9-0.8,1.9-1.9
	C16.9,40.2,16,39.3,15,39.3z M15,39.3c-1,0-1.9,0.8-1.9,1.9c0,1,0.8,1.9,1.9,1.9s1.9-0.8,1.9-1.9C16.9,40.2,16,39.3,15,39.3z
	 M15,50.2c-4,0-5.7,1.5-7.4,3.2c2,1.7,4.6,2.8,7.4,2.8s5.4-1.1,7.4-2.8C20.8,51.8,19.1,50.2,15,50.2z M15,39.3c-1,0-1.9,0.8-1.9,1.9
	c0,1,0.8,1.9,1.9,1.9s1.9-0.8,1.9-1.9C16.9,40.2,16,39.3,15,39.3z M15,9.1c-1,0-1.9,0.8-1.9,1.9c0,1,0.8,1.9,1.9,1.9
	s1.9-0.8,1.9-1.9C16.9,9.9,16,9.1,15,9.1z M15,9.1c-1,0-1.9,0.8-1.9,1.9c0,1,0.8,1.9,1.9,1.9s1.9-0.8,1.9-1.9
	C16.9,9.9,16,9.1,15,9.1z M15,4.1c-3.8,0-6.9,3-6.9,6.7c0,4.4,5,8.5,6.9,9.9c1.9-1.4,6.9-5.5,6.9-9.9C21.9,7.1,18.8,4.1,15,4.1z
	 M15,15.3c-2.4,0-4.4-2-4.4-4.4c0-2.4,2-4.4,4.4-4.4s4.4,2,4.4,4.4C19.4,13.4,17.4,15.3,15,15.3z M15,9.1c-1,0-1.9,0.8-1.9,1.9
	c0,1,0.8,1.9,1.9,1.9s1.9-0.8,1.9-1.9C16.9,9.9,16,9.1,15,9.1z M15,9.1c-1,0-1.9,0.8-1.9,1.9c0,1,0.8,1.9,1.9,1.9s1.9-0.8,1.9-1.9
	C16.9,9.9,16,9.1,15,9.1z M15,9.1c-1,0-1.9,0.8-1.9,1.9c0,1,0.8,1.9,1.9,1.9s1.9-0.8,1.9-1.9C16.9,9.9,16,9.1,15,9.1z M82,13.1h4.2
	V8.8H63.8v17.5h22.5v-4.4H82c-2.5,0-4.5-2-4.5-4.4C77.5,15.1,79.5,13.1,82,13.1z M82,15.6c-1.1,0-2,0.8-2,1.9c0,1,0.9,1.9,2,1.9h4.2
	v-3.8H82z M79.4,4.2l-3.5,2l4.7,0L79.4,4.2z M15,39.3c-1,0-1.9,0.8-1.9,1.9c0,1,0.8,1.9,1.9,1.9s1.9-0.8,1.9-1.9
	C16.9,40.2,16,39.3,15,39.3z M15,9.1c-1,0-1.9,0.8-1.9,1.9c0,1,0.8,1.9,1.9,1.9s1.9-0.8,1.9-1.9C16.9,9.9,16,9.1,15,9.1z M15,50.2
	c-4,0-5.7,1.5-7.4,3.2c2,1.7,4.6,2.8,7.4,2.8s5.4-1.1,7.4-2.8C20.8,51.8,19.1,50.2,15,50.2z M15,9.1c-1,0-1.9,0.8-1.9,1.9
	c0,1,0.8,1.9,1.9,1.9s1.9-0.8,1.9-1.9C16.9,9.9,16,9.1,15,9.1z M15,4.1c-3.8,0-6.9,3-6.9,6.7c0,4.4,5,8.5,6.9,9.9
	c1.9-1.4,6.9-5.5,6.9-9.9C21.9,7.1,18.8,4.1,15,4.1z M15,15.3c-2.4,0-4.4-2-4.4-4.4c0-2.4,2-4.4,4.4-4.4s4.4,2,4.4,4.4
	C19.4,13.4,17.4,15.3,15,15.3z M15,9.1c-1,0-1.9,0.8-1.9,1.9c0,1,0.8,1.9,1.9,1.9s1.9-0.8,1.9-1.9C16.9,9.9,16,9.1,15,9.1z M15,39.3
	c-1,0-1.9,0.8-1.9,1.9c0,1,0.8,1.9,1.9,1.9s1.9-0.8,1.9-1.9C16.9,40.2,16,39.3,15,39.3z M15,33.8c-6.2,0-11.2,5-11.2,11.2
	c0,2.5,0.8,4.8,2.2,6.6c1.8-1.8,4.2-3.9,9.1-3.9c5,0,7.3,2.1,9.1,3.9c1.3-1.8,2.2-4.1,2.2-6.6C26.2,38.8,21.2,33.8,15,33.8z
	 M15,45.6c-2.4,0-4.4-2-4.4-4.4c0-2.4,2-4.4,4.4-4.4s4.4,2,4.4,4.4C19.4,43.6,17.4,45.6,15,45.6z M15,39.3c-1,0-1.9,0.8-1.9,1.9
	c0,1,0.8,1.9,1.9,1.9s1.9-0.8,1.9-1.9C16.9,40.2,16,39.3,15,39.3z M38.1,20.6c-0.7,0-1.2,0.6-1.2,1.2s0.6,1.2,1.2,1.2
	s1.2-0.6,1.2-1.2S38.8,20.6,38.1,20.6z M42.1,54.5c-0.3,0-0.6,0.3-0.6,0.6c0,0.4,0.3,0.6,0.6,0.6s0.6-0.3,0.6-0.6
	C42.8,54.8,42.5,54.5,42.1,54.5z M33.8,6.9v13.8h0.8c0.5-1.5,1.9-2.5,3.5-2.5c1.6,0,3,1,3.5,2.5h5.9V6.9H33.8z M52.8,20.6
	c-0.7,0-1.2,0.6-1.2,1.2s0.6,1.2,1.2,1.2s1.2-0.6,1.2-1.2S53.5,20.6,52.8,20.6z M40.4,40.6l1.9,8.1h10.6l2.4-8.1H40.4z M52.6,14.1
	H50v5.4c0.7-0.8,1.7-1.3,2.8-1.3c1.5,0,2.8,0.9,3.4,2.2v-2.7L52.6,14.1z M79.4,4.2l-3.5,2l4.7,0L79.4,4.2z M82,15.6
	c-1.1,0-2,0.8-2,1.9c0,1,0.9,1.9,2,1.9h4.2v-3.8H82z M82,13.1h4.2V8.8H63.8v17.5h22.5v-4.4H82c-2.5,0-4.5-2-4.5-4.4
	C77.5,15.1,79.5,13.1,82,13.1z M75,35.6l-11.6,20h23.2L75,35.6z M76.2,52.5c0,0.7-0.6,1.2-1.2,1.2s-1.2-0.6-1.2-1.2v-0.6
	c0-0.7,0.6-1.2,1.2-1.2s1.2,0.6,1.2,1.2V52.5z M75,49.4C75,49.4,75,49.4,75,49.4c-0.7,0-1.2-0.6-1.3-1.2v-6.2c0-0.7,0.6-1.2,1.2-1.2
	s1.2,0.6,1.2,1.2v6.2C76.2,48.8,75.7,49.4,75,49.4z M103.1,21.3v5h3.8v-5H103.1z M96.2,3.8v2.5h17.5V3.8H96.2z M111.5,14.1l-0.2-0.1
	l-0.2,0.1c-1.8,1.1-4,1.1-5.8,0L105,14l-0.2,0.1c-1.8,1.1-4,1.1-5.8,0L98.8,14l-0.2,0.1c-0.7,0.4-1.5,0.7-2.3,0.8v11.4h4.4V20
	c0-0.7,0.5-1.2,1.2-1.2h6.2c0.7,0,1.2,0.6,1.2,1.2v6.2h4.4V14.9C113,14.8,112.2,14.5,111.5,14.1z M113,37.1c-2.1-2.1-5-3.3-8-3.3
	c-3,0-5.8,1.2-8,3.3c-2.1,2.1-3.3,5-3.3,8c0,3,1.2,5.8,3.3,8c2.1,2.1,5,3.3,8,3.3c3,0,5.8-1.2,8-3.3c2.1-2.1,3.3-5,3.3-8
	C116.2,42,115.1,39.2,113,37.1z M112.1,42.2l-7.5,7.5c-0.2,0.2-0.6,0.4-0.9,0.4s-0.6-0.1-0.9-0.4l-3.8-3.8c-0.5-0.5-0.5-1.3,0-1.8
	s1.3-0.5,1.8,0l2.9,2.9l6.6-6.6c0.5-0.5,1.3-0.5,1.8,0C112.6,40.9,112.6,41.7,112.1,42.2z M93.8,8.8v3L94,12c1,0.6,2.2,0.6,3.2,0
	l0.9-0.5c0.4-0.2,0.9-0.2,1.3,0l0.9,0.5c1,0.6,2.2,0.6,3.2,0l0.9-0.5c0.4-0.2,0.9-0.2,1.3,0l0.9,0.5c1,0.6,2.2,0.6,3.2,0l0.9-0.5
	c0.4-0.2,0.9-0.2,1.3,0l0.9,0.5c1,0.6,2.2,0.6,3.2,0l0.3-0.2v-3H93.8z M93.8,8.8v3L94,12c1,0.6,2.2,0.6,3.2,0l0.9-0.5
	c0.4-0.2,0.9-0.2,1.3,0l0.9,0.5c1,0.6,2.2,0.6,3.2,0l0.9-0.5c0.4-0.2,0.9-0.2,1.3,0l0.9,0.5c1,0.6,2.2,0.6,3.2,0l0.9-0.5
	c0.4-0.2,0.9-0.2,1.3,0l0.9,0.5c1,0.6,2.2,0.6,3.2,0l0.3-0.2v-3H93.8z M111.2,14l-0.2,0.1c-1.8,1.1-4,1.1-5.8,0L105,14l-0.2,0.1
	c-1.8,1.1-4,1.1-5.8,0L98.8,14l-0.2,0.1c-0.7,0.4-1.5,0.7-2.3,0.8v11.4h4.4V20c0-0.7,0.5-1.2,1.2-1.2h6.2c0.7,0,1.2,0.6,1.2,1.2v6.2
	h4.4V14.9c-0.8-0.1-1.6-0.3-2.3-0.8L111.2,14z M113.8,3.8H96.2v2.5h17.5V3.8z M103.1,26.3h3.8v-5h-3.8V26.3z M113,37.1
	c-2.1-2.1-5-3.3-8-3.3c-3,0-5.8,1.2-8,3.3c-2.1,2.1-3.3,5-3.3,8c0,3,1.2,5.8,3.3,8c2.1,2.1,5,3.3,8,3.3c3,0,5.8-1.2,8-3.3
	c2.1-2.1,3.3-5,3.3-8C116.2,42,115.1,39.2,113,37.1z M112.1,42.2l-7.5,7.5c-0.2,0.2-0.6,0.4-0.9,0.4s-0.6-0.1-0.9-0.4l-3.8-3.8
	c-0.5-0.5-0.5-1.3,0-1.8s1.3-0.5,1.8,0l2.9,2.9l6.6-6.6c0.5-0.5,1.3-0.5,1.8,0C112.6,40.9,112.6,41.7,112.1,42.2z M75,35.6l-11.6,20
	h23.2L75,35.6z M76.2,52.5c0,0.7-0.6,1.2-1.2,1.2s-1.2-0.6-1.2-1.2v-0.6c0-0.7,0.6-1.2,1.2-1.2s1.2,0.6,1.2,1.2V52.5z M75,49.4
	C75,49.4,75,49.4,75,49.4c-0.7,0-1.2-0.6-1.3-1.2v-6.2c0-0.7,0.6-1.2,1.2-1.2s1.2,0.6,1.2,1.2v6.2C76.2,48.8,75.7,49.4,75,49.4z
	 M52.6,14.1H50v5.4c0.7-0.8,1.7-1.3,2.8-1.3c1.5,0,2.8,0.9,3.4,2.2v-2.7L52.6,14.1z M52.8,20.6c-0.7,0-1.2,0.6-1.2,1.2
	s0.6,1.2,1.2,1.2s1.2-0.6,1.2-1.2S53.5,20.6,52.8,20.6z M33.8,20.6h0.8c0.5-1.5,1.9-2.5,3.5-2.5c1.6,0,3,1,3.5,2.5h5.9V6.9H33.8
	V20.6z M38.1,20.6c-0.7,0-1.2,0.6-1.2,1.2s0.6,1.2,1.2,1.2s1.2-0.6,1.2-1.2S38.8,20.6,38.1,20.6z M40.4,40.6l1.9,8.1h10.6l2.4-8.1
	H40.4z M42.1,54.5c-0.3,0-0.6,0.3-0.6,0.6c0,0.4,0.3,0.6,0.6,0.6s0.6-0.3,0.6-0.6C42.8,54.8,42.5,54.5,42.1,54.5z M15,33.8
	c-6.2,0-11.2,5-11.2,11.2c0,2.5,0.8,4.8,2.2,6.6c1.8-1.8,4.2-3.9,9.1-3.9c5,0,7.3,2.1,9.1,3.9c1.3-1.8,2.2-4.1,2.2-6.6
	C26.2,38.8,21.2,33.8,15,33.8z M15,45.6c-2.4,0-4.4-2-4.4-4.4c0-2.4,2-4.4,4.4-4.4s4.4,2,4.4,4.4C19.4,43.6,17.4,45.6,15,45.6z
	 M15,50.2c-4,0-5.7,1.5-7.4,3.2c2,1.7,4.6,2.8,7.4,2.8s5.4-1.1,7.4-2.8C20.8,51.8,19.1,50.2,15,50.2z M15,39.3c-1,0-1.9,0.8-1.9,1.9
	c0,1,0.8,1.9,1.9,1.9s1.9-0.8,1.9-1.9C16.9,40.2,16,39.3,15,39.3z M15,4.1c-3.8,0-6.9,3-6.9,6.7c0,4.4,5,8.5,6.9,9.9
	c1.9-1.4,6.9-5.5,6.9-9.9C21.9,7.1,18.8,4.1,15,4.1z M15,15.3c-2.4,0-4.4-2-4.4-4.4c0-2.4,2-4.4,4.4-4.4s4.4,2,4.4,4.4
	C19.4,13.4,17.4,15.3,15,15.3z M15,9.1c-1,0-1.9,0.8-1.9,1.9c0,1,0.8,1.9,1.9,1.9s1.9-0.8,1.9-1.9C16.9,9.9,16,9.1,15,9.1z
	 M63.8,8.8v17.5h22.5v-4.4H82c-2.5,0-4.5-2-4.5-4.4c0-2.4,2-4.4,4.5-4.4h4.2V8.8H63.8z M80,17.5c0,1,0.9,1.9,2,1.9h4.2v-3.8H82
	C80.9,15.6,80,16.5,80,17.5z M79.4,4.2l-3.5,2l4.7,0L79.4,4.2z M0,0v60h120V0H0z M61.2,8.8c0-1.4,1.1-2.5,2.5-2.5h7.1l8.4-4.8
	c0.3-0.2,0.6-0.2,1-0.1c0.3,0.1,0.6,0.3,0.8,0.6l2.5,4.4h2.8c1.4,0,2.5,1.1,2.5,2.5v17.5c0,1.4-1.1,2.5-2.5,2.5H63.8
	c-1.4,0-2.5-1.1-2.5-2.5V8.8z M15,1.6c5.2,0,9.4,4.1,9.4,9.2c0,6.7-8.3,12.3-8.7,12.5c-0.2,0.1-0.4,0.2-0.7,0.2s-0.5-0.1-0.7-0.2
	C14,23,5.6,17.5,5.6,10.8C5.6,5.7,9.8,1.6,15,1.6z M15,58.8C7.4,58.8,1.2,52.6,1.2,45c0-7.6,6.2-13.8,13.8-13.8S28.8,37.4,28.8,45
	C28.8,52.6,22.6,58.8,15,58.8z M15,28.5c-6.6,0-13.8-1.6-13.8-5c0-1.6,1.5-2.9,4.5-3.9c0.7-0.2,1.4,0.2,1.6,0.8S7.2,21.8,6.5,22
	c-2.1,0.6-2.7,1.3-2.8,1.5C3.9,24.1,7.7,26,15,26s11.1-1.8,11.2-2.5c0-0.1-0.7-0.8-2.8-1.4c-0.7-0.2-1-0.9-0.8-1.6s0.9-1,1.6-0.8
	c3,0.9,4.5,2.2,4.5,3.9C28.8,26.9,21.6,28.5,15,28.5z M42.1,58.3c-1.7,0-3.1-1.4-3.1-3.1c0-1.7,1.4-3.1,3.1-3.1
	c1.7,0,3.1,1.4,3.1,3.1C45.2,56.9,43.8,58.3,42.1,58.3z M52.9,58.3c-1.7,0-3.1-1.4-3.1-3.1c0-1.7,1.4-3.1,3.1-3.1
	c1.7,0,3.1,1.4,3.1,3.1C56,56.9,54.7,58.3,52.9,58.3z M58,39.7l-3.1,10.6c-0.2,0.5-0.6,0.9-1.2,0.9H41.2c-0.6,0-1.1-0.4-1.2-1
	l-2.4-10.6c0,0,0,0,0-0.1L37,37l-4.5-3c-0.6-0.4-0.7-1.2-0.3-1.7c0.4-0.6,1.2-0.7,1.7-0.3l4.9,3.3c0.3,0.2,0.4,0.4,0.5,0.8l0.5,2.2
	h17.1c0.4,0,0.8,0.2,1,0.5C58.1,39,58.2,39.4,58,39.7z M58.8,21.9c0,0.7-0.6,1.2-1.2,1.2h-1.2c-0.5,1.5-1.9,2.5-3.5,2.5
	s-3-1-3.5-2.5h-7.7c-0.5,1.5-1.9,2.5-3.5,2.5s-3-1-3.5-2.5h-1.4c-1,0-1.9-0.8-1.9-1.9v-15c0-1,0.8-1.9,1.9-1.9h15
	c1,0,1.9,0.8,1.9,1.9v5.3h3.1c0.3,0,0.6,0.1,0.9,0.4l4.4,4.3c0.2,0.2,0.4,0.5,0.4,0.9V21.9z M89.8,57.5c-0.2,0.4-0.6,0.6-1.1,0.6
	H61.2c-0.5,0-0.9-0.2-1.1-0.6c-0.2-0.4-0.2-0.9,0-1.2l13.8-23.8c0.2-0.4,0.6-0.6,1.1-0.6s0.9,0.2,1.1,0.6l13.8,23.8
	C90.1,56.7,90.1,57.1,89.8,57.5z M114.7,54.7c-2.6,2.6-6,4-9.7,4c-3.7,0-7.1-1.4-9.7-4c-2.6-2.6-4-6-4-9.7c0-3.7,1.4-7.1,4-9.7
	c2.6-2.6,6-4,9.7-4s7.1,1.4,9.7,4c2.6,2.6,4,6.1,4,9.7C118.8,48.7,117.3,52.1,114.7,54.7z M118.8,12.5c0,0.4-0.2,0.8-0.6,1.1
	l-0.9,0.5c-0.3,0.2-0.7,0.3-1,0.5v12.9c0,0.7-0.6,1.2-1.2,1.2H95c-0.7,0-1.2-0.6-1.2-1.2V14.6c-0.3-0.1-0.7-0.3-1-0.5l-0.9-0.5
	c-0.4-0.2-0.6-0.6-0.6-1.1v-5c0-0.7,0.6-1.2,1.2-1.2h1.2V2.5c0-0.7,0.6-1.2,1.2-1.2h20c0.7,0,1.2,0.6,1.2,1.2v3.8h1.2
	c0.7,0,1.2,0.6,1.2,1.2V12.5z M93.8,11.8L94,12c1,0.6,2.2,0.6,3.2,0l0.9-0.5c0.4-0.2,0.9-0.2,1.3,0l0.9,0.5c1,0.6,2.2,0.6,3.2,0
	l0.9-0.5c0.4-0.2,0.9-0.2,1.3,0l0.9,0.5c1,0.6,2.2,0.6,3.2,0l0.9-0.5c0.4-0.2,0.9-0.2,1.3,0l0.9,0.5c1,0.6,2.2,0.6,3.2,0l0.3-0.2v-3
	H93.8V11.8z M105,33.8c-3,0-5.8,1.2-8,3.3c-2.1,2.1-3.3,5-3.3,8c0,3,1.2,5.8,3.3,8c2.1,2.1,5,3.3,8,3.3c3,0,5.8-1.2,8-3.3
	c2.1-2.1,3.3-5,3.3-8c0-3-1.2-5.8-3.3-8C110.8,34.9,108,33.8,105,33.8z M112.1,42.2l-7.5,7.5c-0.2,0.2-0.6,0.4-0.9,0.4
	s-0.6-0.1-0.9-0.4l-3.8-3.8c-0.5-0.5-0.5-1.3,0-1.8s1.3-0.5,1.8,0l2.9,2.9l6.6-6.6c0.5-0.5,1.3-0.5,1.8,0
	C112.6,40.9,112.6,41.7,112.1,42.2z M111.2,14l-0.2,0.1c-1.8,1.1-4,1.1-5.8,0L105,14l-0.2,0.1c-1.8,1.1-4,1.1-5.8,0L98.8,14
	l-0.2,0.1c-0.7,0.4-1.5,0.7-2.3,0.8v11.4h4.4V20c0-0.7,0.5-1.2,1.2-1.2h6.2c0.7,0,1.2,0.6,1.2,1.2v6.2h4.4V14.9
	c-0.8-0.1-1.6-0.3-2.3-0.8L111.2,14z M113.8,3.8H96.2v2.5h17.5V3.8z M103.1,26.3h3.8v-5h-3.8V26.3z M63.4,55.6h23.2L75,35.6
	L63.4,55.6z M76.2,52.5c0,0.7-0.6,1.2-1.2,1.2s-1.2-0.6-1.2-1.2v-0.6c0-0.7,0.6-1.2,1.2-1.2s1.2,0.6,1.2,1.2V52.5z M76.2,41.9v6.2
	c0,0.7-0.5,1.2-1.2,1.2c0,0,0,0,0,0c-0.7,0-1.2-0.6-1.2-1.2v-6.2c0-0.7,0.6-1.2,1.2-1.2S76.2,41.2,76.2,41.9z M86.2,21.9H82
	c-2.5,0-4.5-2-4.5-4.4c0-2.4,2-4.4,4.5-4.4h4.2V8.8H63.8v17.5h22.5V21.9z M80,17.5c0,1,0.9,1.9,2,1.9h4.2v-3.8H82
	C80.9,15.6,80,16.5,80,17.5z M79.4,4.2l-3.5,2l4.7,0L79.4,4.2z M50,14.1v5.4c0.7-0.8,1.7-1.3,2.8-1.3c1.5,0,2.8,0.9,3.4,2.2v-2.7
	l-3.6-3.6H50z M42.2,48.8h10.6l2.4-8.1H40.4L42.2,48.8z M52.8,20.6c-0.7,0-1.2,0.6-1.2,1.2s0.6,1.2,1.2,1.2s1.2-0.6,1.2-1.2
	S53.5,20.6,52.8,20.6z M52.9,54.5c-0.3,0-0.6,0.3-0.6,0.6c0,0.4,0.3,0.6,0.6,0.6c0.3,0,0.6-0.3,0.6-0.6
	C53.5,54.8,53.3,54.5,52.9,54.5z M33.8,20.6h0.8c0.5-1.5,1.9-2.5,3.5-2.5c1.6,0,3,1,3.5,2.5h5.9V6.9H33.8V20.6z M42.1,54.5
	c-0.3,0-0.6,0.3-0.6,0.6c0,0.4,0.3,0.6,0.6,0.6s0.6-0.3,0.6-0.6C42.8,54.8,42.5,54.5,42.1,54.5z M38.1,20.6c-0.7,0-1.2,0.6-1.2,1.2
	s0.6,1.2,1.2,1.2s1.2-0.6,1.2-1.2S38.8,20.6,38.1,20.6z M15,33.8c-6.2,0-11.2,5-11.2,11.2c0,2.5,0.8,4.8,2.2,6.6
	c1.8-1.8,4.2-3.9,9.1-3.9c5,0,7.3,2.1,9.1,3.9c1.3-1.8,2.2-4.1,2.2-6.6C26.2,38.8,21.2,33.8,15,33.8z M15,45.6c-2.4,0-4.4-2-4.4-4.4
	c0-2.4,2-4.4,4.4-4.4s4.4,2,4.4,4.4C19.4,43.6,17.4,45.6,15,45.6z M15,20.7c1.9-1.4,6.9-5.5,6.9-9.9c0-3.7-3.1-6.7-6.9-6.7
	s-6.9,3-6.9,6.7C8.1,15.2,13.1,19.3,15,20.7z M10.6,11c0-2.4,2-4.4,4.4-4.4s4.4,2,4.4,4.4c0,2.4-2,4.4-4.4,4.4S10.6,13.4,10.6,11z
	 M15,50.2c-4,0-5.7,1.5-7.4,3.2c2,1.7,4.6,2.8,7.4,2.8s5.4-1.1,7.4-2.8C20.8,51.8,19.1,50.2,15,50.2z M16.9,11c0-1-0.8-1.9-1.9-1.9
	s-1.9,0.8-1.9,1.9c0,1,0.8,1.9,1.9,1.9S16.9,12,16.9,11z M15,39.3c-1,0-1.9,0.8-1.9,1.9c0,1,0.8,1.9,1.9,1.9s1.9-0.8,1.9-1.9
	C16.9,40.2,16,39.3,15,39.3z M79.4,4.2l-3.5,2l4.7,0L79.4,4.2z M82,15.6c-1.1,0-2,0.8-2,1.9c0,1,0.9,1.9,2,1.9h4.2v-3.8H82z
	 M82,13.1h4.2V8.8H63.8v17.5h22.5v-4.4H82c-2.5,0-4.5-2-4.5-4.4C77.5,15.1,79.5,13.1,82,13.1z M15,9.1c-1,0-1.9,0.8-1.9,1.9
	c0,1,0.8,1.9,1.9,1.9s1.9-0.8,1.9-1.9C16.9,9.9,16,9.1,15,9.1z M15,9.1c-1,0-1.9,0.8-1.9,1.9c0,1,0.8,1.9,1.9,1.9s1.9-0.8,1.9-1.9
	C16.9,9.9,16,9.1,15,9.1z M15,4.1c-3.8,0-6.9,3-6.9,6.7c0,4.4,5,8.5,6.9,9.9c1.9-1.4,6.9-5.5,6.9-9.9C21.9,7.1,18.8,4.1,15,4.1z
	 M15,15.3c-2.4,0-4.4-2-4.4-4.4c0-2.4,2-4.4,4.4-4.4s4.4,2,4.4,4.4C19.4,13.4,17.4,15.3,15,15.3z M15,9.1c-1,0-1.9,0.8-1.9,1.9
	c0,1,0.8,1.9,1.9,1.9s1.9-0.8,1.9-1.9C16.9,9.9,16,9.1,15,9.1z M15,39.3c-1,0-1.9,0.8-1.9,1.9c0,1,0.8,1.9,1.9,1.9s1.9-0.8,1.9-1.9
	C16.9,40.2,16,39.3,15,39.3z M15,50.2c-4,0-5.7,1.5-7.4,3.2c2,1.7,4.6,2.8,7.4,2.8s5.4-1.1,7.4-2.8C20.8,51.8,19.1,50.2,15,50.2z
	 M15,39.3c-1,0-1.9,0.8-1.9,1.9c0,1,0.8,1.9,1.9,1.9s1.9-0.8,1.9-1.9C16.9,40.2,16,39.3,15,39.3z M15,33.8c-6.2,0-11.2,5-11.2,11.2
	c0,2.5,0.8,4.8,2.2,6.6c1.8-1.8,4.2-3.9,9.1-3.9c5,0,7.3,2.1,9.1,3.9c1.3-1.8,2.2-4.1,2.2-6.6C26.2,38.8,21.2,33.8,15,33.8z
	 M15,45.6c-2.4,0-4.4-2-4.4-4.4c0-2.4,2-4.4,4.4-4.4s4.4,2,4.4,4.4C19.4,43.6,17.4,45.6,15,45.6z M15,39.3c-1,0-1.9,0.8-1.9,1.9
	c0,1,0.8,1.9,1.9,1.9s1.9-0.8,1.9-1.9C16.9,40.2,16,39.3,15,39.3z M40.4,40.6l1.9,8.1h10.6l2.4-8.1H40.4z M38.1,20.6
	c-0.7,0-1.2,0.6-1.2,1.2s0.6,1.2,1.2,1.2s1.2-0.6,1.2-1.2S38.8,20.6,38.1,20.6z M33.8,6.9v13.8h0.8c0.5-1.5,1.9-2.5,3.5-2.5
	c1.6,0,3,1,3.5,2.5h5.9V6.9H33.8z M52.8,20.6c-0.7,0-1.2,0.6-1.2,1.2s0.6,1.2,1.2,1.2s1.2-0.6,1.2-1.2S53.5,20.6,52.8,20.6z
	 M52.6,14.1H50v5.4c0.7-0.8,1.7-1.3,2.8-1.3c1.5,0,2.8,0.9,3.4,2.2v-2.7L52.6,14.1z M75,35.6l-11.6,20h23.2L75,35.6z M76.2,52.5
	c0,0.7-0.6,1.2-1.2,1.2s-1.2-0.6-1.2-1.2v-0.6c0-0.7,0.6-1.2,1.2-1.2s1.2,0.6,1.2,1.2V52.5z M75,49.4C75,49.4,75,49.4,75,49.4
	c-0.7,0-1.2-0.6-1.3-1.2v-6.2c0-0.7,0.6-1.2,1.2-1.2s1.2,0.6,1.2,1.2v6.2C76.2,48.8,75.7,49.4,75,49.4z M113,37.1
	c-2.1-2.1-5-3.3-8-3.3c-3,0-5.8,1.2-8,3.3c-2.1,2.1-3.3,5-3.3,8c0,3,1.2,5.8,3.3,8c2.1,2.1,5,3.3,8,3.3c3,0,5.8-1.2,8-3.3
	c2.1-2.1,3.3-5,3.3-8C116.2,42,115.1,39.2,113,37.1z M112.1,42.2l-7.5,7.5c-0.2,0.2-0.6,0.4-0.9,0.4s-0.6-0.1-0.9-0.4l-3.8-3.8
	c-0.5-0.5-0.5-1.3,0-1.8s1.3-0.5,1.8,0l2.9,2.9l6.6-6.6c0.5-0.5,1.3-0.5,1.8,0C112.6,40.9,112.6,41.7,112.1,42.2z M103.1,21.3v5h3.8
	v-5H103.1z M96.2,3.8v2.5h17.5V3.8H96.2z M111.5,14.1l-0.2-0.1l-0.2,0.1c-1.8,1.1-4,1.1-5.8,0L105,14l-0.2,0.1c-1.8,1.1-4,1.1-5.8,0
	L98.8,14l-0.2,0.1c-0.7,0.4-1.5,0.7-2.3,0.8v11.4h4.4V20c0-0.7,0.5-1.2,1.2-1.2h6.2c0.7,0,1.2,0.6,1.2,1.2v6.2h4.4V14.9
	C113,14.8,112.2,14.5,111.5,14.1z M93.8,8.8v3L94,12c1,0.6,2.2,0.6,3.2,0l0.9-0.5c0.4-0.2,0.9-0.2,1.3,0l0.9,0.5
	c1,0.6,2.2,0.6,3.2,0l0.9-0.5c0.4-0.2,0.9-0.2,1.3,0l0.9,0.5c1,0.6,2.2,0.6,3.2,0l0.9-0.5c0.4-0.2,0.9-0.2,1.3,0l0.9,0.5
	c1,0.6,2.2,0.6,3.2,0l0.3-0.2v-3H93.8z M93.8,8.8v3L94,12c1,0.6,2.2,0.6,3.2,0l0.9-0.5c0.4-0.2,0.9-0.2,1.3,0l0.9,0.5
	c1,0.6,2.2,0.6,3.2,0l0.9-0.5c0.4-0.2,0.9-0.2,1.3,0l0.9,0.5c1,0.6,2.2,0.6,3.2,0l0.9-0.5c0.4-0.2,0.9-0.2,1.3,0l0.9,0.5
	c1,0.6,2.2,0.6,3.2,0l0.3-0.2v-3H93.8z M113,37.1c-2.1-2.1-5-3.3-8-3.3c-3,0-5.8,1.2-8,3.3c-2.1,2.1-3.3,5-3.3,8c0,3,1.2,5.8,3.3,8
	c2.1,2.1,5,3.3,8,3.3c3,0,5.8-1.2,8-3.3c2.1-2.1,3.3-5,3.3-8C116.2,42,115.1,39.2,113,37.1z M112.1,42.2l-7.5,7.5
	c-0.2,0.2-0.6,0.4-0.9,0.4s-0.6-0.1-0.9-0.4l-3.8-3.8c-0.5-0.5-0.5-1.3,0-1.8s1.3-0.5,1.8,0l2.9,2.9l6.6-6.6c0.5-0.5,1.3-0.5,1.8,0
	C112.6,40.9,112.6,41.7,112.1,42.2z M111.5,14.1l-0.2-0.1l-0.2,0.1c-1.8,1.1-4,1.1-5.8,0L105,14l-0.2,0.1c-1.8,1.1-4,1.1-5.8,0
	L98.8,14l-0.2,0.1c-0.7,0.4-1.5,0.7-2.3,0.8v11.4h4.4V20c0-0.7,0.5-1.2,1.2-1.2h6.2c0.7,0,1.2,0.6,1.2,1.2v6.2h4.4V14.9
	C113,14.8,112.2,14.5,111.5,14.1z M96.2,3.8v2.5h17.5V3.8H96.2z M103.1,21.3v5h3.8v-5H103.1z M75,35.6l-11.6,20h23.2L75,35.6z
	 M76.2,52.5c0,0.7-0.6,1.2-1.2,1.2s-1.2-0.6-1.2-1.2v-0.6c0-0.7,0.6-1.2,1.2-1.2s1.2,0.6,1.2,1.2V52.5z M75,49.4
	C75,49.4,75,49.4,75,49.4c-0.7,0-1.2-0.6-1.3-1.2v-6.2c0-0.7,0.6-1.2,1.2-1.2s1.2,0.6,1.2,1.2v6.2C76.2,48.8,75.7,49.4,75,49.4z
	 M82,13.1h4.2V8.8H63.8v17.5h22.5v-4.4H82c-2.5,0-4.5-2-4.5-4.4C77.5,15.1,79.5,13.1,82,13.1z M82,15.6c-1.1,0-2,0.8-2,1.9
	c0,1,0.9,1.9,2,1.9h4.2v-3.8H82z M79.4,4.2l-3.5,2l4.7,0L79.4,4.2z M52.6,14.1H50v5.4c0.7-0.8,1.7-1.3,2.8-1.3
	c1.5,0,2.8,0.9,3.4,2.2v-2.7L52.6,14.1z M40.4,40.6l1.9,8.1h10.6l2.4-8.1H40.4z M52.8,20.6c-0.7,0-1.2,0.6-1.2,1.2s0.6,1.2,1.2,1.2
	s1.2-0.6,1.2-1.2S53.5,20.6,52.8,20.6z M33.8,6.9v13.8h0.8c0.5-1.5,1.9-2.5,3.5-2.5c1.6,0,3,1,3.5,2.5h5.9V6.9H33.8z M38.1,20.6
	c-0.7,0-1.2,0.6-1.2,1.2s0.6,1.2,1.2,1.2s1.2-0.6,1.2-1.2S38.8,20.6,38.1,20.6z M15,39.3c-1,0-1.9,0.8-1.9,1.9c0,1,0.8,1.9,1.9,1.9
	s1.9-0.8,1.9-1.9C16.9,40.2,16,39.3,15,39.3z M15,39.3c-1,0-1.9,0.8-1.9,1.9c0,1,0.8,1.9,1.9,1.9s1.9-0.8,1.9-1.9
	C16.9,40.2,16,39.3,15,39.3z M15,33.8c-6.2,0-11.2,5-11.2,11.2c0,2.5,0.8,4.8,2.2,6.6c1.8-1.8,4.2-3.9,9.1-3.9c5,0,7.3,2.1,9.1,3.9
	c1.3-1.8,2.2-4.1,2.2-6.6C26.2,38.8,21.2,33.8,15,33.8z M15,45.6c-2.4,0-4.4-2-4.4-4.4c0-2.4,2-4.4,4.4-4.4s4.4,2,4.4,4.4
	C19.4,43.6,17.4,45.6,15,45.6z M15,39.3c-1,0-1.9,0.8-1.9,1.9c0,1,0.8,1.9,1.9,1.9s1.9-0.8,1.9-1.9C16.9,40.2,16,39.3,15,39.3z
	 M15,39.3c-1,0-1.9,0.8-1.9,1.9c0,1,0.8,1.9,1.9,1.9s1.9-0.8,1.9-1.9C16.9,40.2,16,39.3,15,39.3z M15,9.1c-1,0-1.9,0.8-1.9,1.9
	c0,1,0.8,1.9,1.9,1.9s1.9-0.8,1.9-1.9C16.9,9.9,16,9.1,15,9.1z M15,9.1c-1,0-1.9,0.8-1.9,1.9c0,1,0.8,1.9,1.9,1.9s1.9-0.8,1.9-1.9
	C16.9,9.9,16,9.1,15,9.1z M15,4.1c-3.8,0-6.9,3-6.9,6.7c0,4.4,5,8.5,6.9,9.9c1.9-1.4,6.9-5.5,6.9-9.9C21.9,7.1,18.8,4.1,15,4.1z
	 M15,15.3c-2.4,0-4.4-2-4.4-4.4c0-2.4,2-4.4,4.4-4.4s4.4,2,4.4,4.4C19.4,13.4,17.4,15.3,15,15.3z M15,9.1c-1,0-1.9,0.8-1.9,1.9
	c0,1,0.8,1.9,1.9,1.9s1.9-0.8,1.9-1.9C16.9,9.9,16,9.1,15,9.1z M15,9.1c-1,0-1.9,0.8-1.9,1.9c0,1,0.8,1.9,1.9,1.9s1.9-0.8,1.9-1.9
	C16.9,9.9,16,9.1,15,9.1z M15,50.2c-4,0-5.7,1.5-7.4,3.2c2,1.7,4.6,2.8,7.4,2.8s5.4-1.1,7.4-2.8C20.8,51.8,19.1,50.2,15,50.2z
	 M15,9.1c-1,0-1.9,0.8-1.9,1.9c0,1,0.8,1.9,1.9,1.9s1.9-0.8,1.9-1.9C16.9,9.9,16,9.1,15,9.1z M15,39.3c-1,0-1.9,0.8-1.9,1.9
	c0,1,0.8,1.9,1.9,1.9s1.9-0.8,1.9-1.9C16.9,40.2,16,39.3,15,39.3z M79.4,4.2l-3.5,2l4.7,0L79.4,4.2z M82,15.6c-1.1,0-2,0.8-2,1.9
	c0,1,0.9,1.9,2,1.9h4.2v-3.8H82z M82,13.1h4.2V8.8H63.8v17.5h22.5v-4.4H82c-2.5,0-4.5-2-4.5-4.4C77.5,15.1,79.5,13.1,82,13.1z
	 M15,9.1c-1,0-1.9,0.8-1.9,1.9c0,1,0.8,1.9,1.9,1.9s1.9-0.8,1.9-1.9C16.9,9.9,16,9.1,15,9.1z M15,9.1c-1,0-1.9,0.8-1.9,1.9
	c0,1,0.8,1.9,1.9,1.9s1.9-0.8,1.9-1.9C16.9,9.9,16,9.1,15,9.1z M15,9.1c-1,0-1.9,0.8-1.9,1.9c0,1,0.8,1.9,1.9,1.9s1.9-0.8,1.9-1.9
	C16.9,9.9,16,9.1,15,9.1z M15,9.1c-1,0-1.9,0.8-1.9,1.9c0,1,0.8,1.9,1.9,1.9s1.9-0.8,1.9-1.9C16.9,9.9,16,9.1,15,9.1z M15,4.1
	c-3.8,0-6.9,3-6.9,6.7c0,4.4,5,8.5,6.9,9.9c1.9-1.4,6.9-5.5,6.9-9.9C21.9,7.1,18.8,4.1,15,4.1z M15,15.3c-2.4,0-4.4-2-4.4-4.4
	c0-2.4,2-4.4,4.4-4.4s4.4,2,4.4,4.4C19.4,13.4,17.4,15.3,15,15.3z M15,9.1c-1,0-1.9,0.8-1.9,1.9c0,1,0.8,1.9,1.9,1.9
	s1.9-0.8,1.9-1.9C16.9,9.9,16,9.1,15,9.1z M15,9.1c-1,0-1.9,0.8-1.9,1.9c0,1,0.8,1.9,1.9,1.9s1.9-0.8,1.9-1.9
	C16.9,9.9,16,9.1,15,9.1z M15,9.1c-1,0-1.9,0.8-1.9,1.9c0,1,0.8,1.9,1.9,1.9s1.9-0.8,1.9-1.9C16.9,9.9,16,9.1,15,9.1z M15,39.3
	c-1,0-1.9,0.8-1.9,1.9c0,1,0.8,1.9,1.9,1.9s1.9-0.8,1.9-1.9C16.9,40.2,16,39.3,15,39.3z M15,50.2c-4,0-5.7,1.5-7.4,3.2
	c2,1.7,4.6,2.8,7.4,2.8s5.4-1.1,7.4-2.8C20.8,51.8,19.1,50.2,15,50.2z M15,39.3c-1,0-1.9,0.8-1.9,1.9c0,1,0.8,1.9,1.9,1.9
	s1.9-0.8,1.9-1.9C16.9,40.2,16,39.3,15,39.3z M15,39.3c-1,0-1.9,0.8-1.9,1.9c0,1,0.8,1.9,1.9,1.9s1.9-0.8,1.9-1.9
	C16.9,40.2,16,39.3,15,39.3z M15,39.3c-1,0-1.9,0.8-1.9,1.9c0,1,0.8,1.9,1.9,1.9s1.9-0.8,1.9-1.9C16.9,40.2,16,39.3,15,39.3z
	 M15,33.8c-6.2,0-11.2,5-11.2,11.2c0,2.5,0.8,4.8,2.2,6.6c1.8-1.8,4.2-3.9,9.1-3.9c5,0,7.3,2.1,9.1,3.9c1.3-1.8,2.2-4.1,2.2-6.6
	C26.2,38.8,21.2,33.8,15,33.8z M15,45.6c-2.4,0-4.4-2-4.4-4.4c0-2.4,2-4.4,4.4-4.4s4.4,2,4.4,4.4C19.4,43.6,17.4,45.6,15,45.6z
	 M15,39.3c-1,0-1.9,0.8-1.9,1.9c0,1,0.8,1.9,1.9,1.9s1.9-0.8,1.9-1.9C16.9,40.2,16,39.3,15,39.3z M15,39.3c-1,0-1.9,0.8-1.9,1.9
	c0,1,0.8,1.9,1.9,1.9s1.9-0.8,1.9-1.9C16.9,40.2,16,39.3,15,39.3z M15,39.3c-1,0-1.9,0.8-1.9,1.9c0,1,0.8,1.9,1.9,1.9
	s1.9-0.8,1.9-1.9C16.9,40.2,16,39.3,15,39.3z M38.1,20.6c-0.7,0-1.2,0.6-1.2,1.2s0.6,1.2,1.2,1.2s1.2-0.6,1.2-1.2
	S38.8,20.6,38.1,20.6z M33.8,6.9v13.8h0.8c0.5-1.5,1.9-2.5,3.5-2.5c1.6,0,3,1,3.5,2.5h5.9V6.9H33.8z M52.8,20.6
	c-0.7,0-1.2,0.6-1.2,1.2s0.6,1.2,1.2,1.2s1.2-0.6,1.2-1.2S53.5,20.6,52.8,20.6z M52.6,14.1H50v5.4c0.7-0.8,1.7-1.3,2.8-1.3
	c1.5,0,2.8,0.9,3.4,2.2v-2.7L52.6,14.1z M75,35.6l-11.6,20h23.2L75,35.6z M76.2,52.5c0,0.7-0.6,1.2-1.2,1.2s-1.2-0.6-1.2-1.2v-0.6
	c0-0.7,0.6-1.2,1.2-1.2s1.2,0.6,1.2,1.2V52.5z M75,49.4C75,49.4,75,49.4,75,49.4c-0.7,0-1.2-0.6-1.3-1.2v-6.2c0-0.7,0.6-1.2,1.2-1.2
	s1.2,0.6,1.2,1.2v6.2C76.2,48.8,75.7,49.4,75,49.4z M113,37.1c-2.1-2.1-5-3.3-8-3.3c-3,0-5.8,1.2-8,3.3c-2.1,2.1-3.3,5-3.3,8
	c0,3,1.2,5.8,3.3,8c2.1,2.1,5,3.3,8,3.3c3,0,5.8-1.2,8-3.3c2.1-2.1,3.3-5,3.3-8C116.2,42,115.1,39.2,113,37.1z M112.1,42.2l-7.5,7.5
	c-0.2,0.2-0.6,0.4-0.9,0.4s-0.6-0.1-0.9-0.4l-3.8-3.8c-0.5-0.5-0.5-1.3,0-1.8s1.3-0.5,1.8,0l2.9,2.9l6.6-6.6c0.5-0.5,1.3-0.5,1.8,0
	C112.6,40.9,112.6,41.7,112.1,42.2z M103.1,21.3v5h3.8v-5H103.1z M96.2,3.8v2.5h17.5V3.8H96.2z M111.5,14.1l-0.2-0.1l-0.2,0.1
	c-1.8,1.1-4,1.1-5.8,0L105,14l-0.2,0.1c-1.8,1.1-4,1.1-5.8,0L98.8,14l-0.2,0.1c-0.7,0.4-1.5,0.7-2.3,0.8v11.4h4.4V20
	c0-0.7,0.5-1.2,1.2-1.2h6.2c0.7,0,1.2,0.6,1.2,1.2v6.2h4.4V14.9C113,14.8,112.2,14.5,111.5,14.1z M93.8,8.8v3L94,12
	c1,0.6,2.2,0.6,3.2,0l0.9-0.5c0.4-0.2,0.9-0.2,1.3,0l0.9,0.5c1,0.6,2.2,0.6,3.2,0l0.9-0.5c0.4-0.2,0.9-0.2,1.3,0l0.9,0.5
	c1,0.6,2.2,0.6,3.2,0l0.9-0.5c0.4-0.2,0.9-0.2,1.3,0l0.9,0.5c1,0.6,2.2,0.6,3.2,0l0.3-0.2v-3H93.8z M93.8,8.8v3L94,12
	c1,0.6,2.2,0.6,3.2,0l0.9-0.5c0.4-0.2,0.9-0.2,1.3,0l0.9,0.5c1,0.6,2.2,0.6,3.2,0l0.9-0.5c0.4-0.2,0.9-0.2,1.3,0l0.9,0.5
	c1,0.6,2.2,0.6,3.2,0l0.9-0.5c0.4-0.2,0.9-0.2,1.3,0l0.9,0.5c1,0.6,2.2,0.6,3.2,0l0.3-0.2v-3H93.8z M113,37.1c-2.1-2.1-5-3.3-8-3.3
	c-3,0-5.8,1.2-8,3.3c-2.1,2.1-3.3,5-3.3,8c0,3,1.2,5.8,3.3,8c2.1,2.1,5,3.3,8,3.3c3,0,5.8-1.2,8-3.3c2.1-2.1,3.3-5,3.3-8
	C116.2,42,115.1,39.2,113,37.1z M112.1,42.2l-7.5,7.5c-0.2,0.2-0.6,0.4-0.9,0.4s-0.6-0.1-0.9-0.4l-3.8-3.8c-0.5-0.5-0.5-1.3,0-1.8
	s1.3-0.5,1.8,0l2.9,2.9l6.6-6.6c0.5-0.5,1.3-0.5,1.8,0C112.6,40.9,112.6,41.7,112.1,42.2z M111.5,14.1l-0.2-0.1l-0.2,0.1
	c-1.8,1.1-4,1.1-5.8,0L105,14l-0.2,0.1c-1.8,1.1-4,1.1-5.8,0L98.8,14l-0.2,0.1c-0.7,0.4-1.5,0.7-2.3,0.8v11.4h4.4V20
	c0-0.7,0.5-1.2,1.2-1.2h6.2c0.7,0,1.2,0.6,1.2,1.2v6.2h4.4V14.9C113,14.8,112.2,14.5,111.5,14.1z M96.2,3.8v2.5h17.5V3.8H96.2z
	 M103.1,21.3v5h3.8v-5H103.1z M75,35.6l-11.6,20h23.2L75,35.6z M76.2,52.5c0,0.7-0.6,1.2-1.2,1.2s-1.2-0.6-1.2-1.2v-0.6
	c0-0.7,0.6-1.2,1.2-1.2s1.2,0.6,1.2,1.2V52.5z M75,49.4C75,49.4,75,49.4,75,49.4c-0.7,0-1.2-0.6-1.3-1.2v-6.2c0-0.7,0.6-1.2,1.2-1.2
	s1.2,0.6,1.2,1.2v6.2C76.2,48.8,75.7,49.4,75,49.4z M82,13.1h4.2V8.8H63.8v17.5h22.5v-4.4H82c-2.5,0-4.5-2-4.5-4.4
	C77.5,15.1,79.5,13.1,82,13.1z M82,15.6c-1.1,0-2,0.8-2,1.9c0,1,0.9,1.9,2,1.9h4.2v-3.8H82z M79.4,4.2l-3.5,2l4.7,0L79.4,4.2z
	 M52.6,14.1H50v5.4c0.7-0.8,1.7-1.3,2.8-1.3c1.5,0,2.8,0.9,3.4,2.2v-2.7L52.6,14.1z M52.8,20.6c-0.7,0-1.2,0.6-1.2,1.2
	s0.6,1.2,1.2,1.2s1.2-0.6,1.2-1.2S53.5,20.6,52.8,20.6z M33.8,6.9v13.8h0.8c0.5-1.5,1.9-2.5,3.5-2.5c1.6,0,3,1,3.5,2.5h5.9V6.9H33.8
	z M38.1,20.6c-0.7,0-1.2,0.6-1.2,1.2s0.6,1.2,1.2,1.2s1.2-0.6,1.2-1.2S38.8,20.6,38.1,20.6z M15,39.3c-1,0-1.9,0.8-1.9,1.9
	c0,1,0.8,1.9,1.9,1.9s1.9-0.8,1.9-1.9C16.9,40.2,16,39.3,15,39.3z M15,39.3c-1,0-1.9,0.8-1.9,1.9c0,1,0.8,1.9,1.9,1.9
	s1.9-0.8,1.9-1.9C16.9,40.2,16,39.3,15,39.3z M15,39.3c-1,0-1.9,0.8-1.9,1.9c0,1,0.8,1.9,1.9,1.9s1.9-0.8,1.9-1.9
	C16.9,40.2,16,39.3,15,39.3z M15,39.3c-1,0-1.9,0.8-1.9,1.9c0,1,0.8,1.9,1.9,1.9s1.9-0.8,1.9-1.9C16.9,40.2,16,39.3,15,39.3z
	 M15,33.8c-6.2,0-11.2,5-11.2,11.2c0,2.5,0.8,4.8,2.2,6.6c1.8-1.8,4.2-3.9,9.1-3.9c5,0,7.3,2.1,9.1,3.9c1.3-1.8,2.2-4.1,2.2-6.6
	C26.2,38.8,21.2,33.8,15,33.8z M15,45.6c-2.4,0-4.4-2-4.4-4.4c0-2.4,2-4.4,4.4-4.4s4.4,2,4.4,4.4C19.4,43.6,17.4,45.6,15,45.6z
	 M15,39.3c-1,0-1.9,0.8-1.9,1.9c0,1,0.8,1.9,1.9,1.9s1.9-0.8,1.9-1.9C16.9,40.2,16,39.3,15,39.3z M15,39.3c-1,0-1.9,0.8-1.9,1.9
	c0,1,0.8,1.9,1.9,1.9s1.9-0.8,1.9-1.9C16.9,40.2,16,39.3,15,39.3z M15,39.3c-1,0-1.9,0.8-1.9,1.9c0,1,0.8,1.9,1.9,1.9
	s1.9-0.8,1.9-1.9C16.9,40.2,16,39.3,15,39.3z M15,9.1c-1,0-1.9,0.8-1.9,1.9c0,1,0.8,1.9,1.9,1.9s1.9-0.8,1.9-1.9
	C16.9,9.9,16,9.1,15,9.1z M15,9.1c-1,0-1.9,0.8-1.9,1.9c0,1,0.8,1.9,1.9,1.9s1.9-0.8,1.9-1.9C16.9,9.9,16,9.1,15,9.1z M15,9.1
	c-1,0-1.9,0.8-1.9,1.9c0,1,0.8,1.9,1.9,1.9s1.9-0.8,1.9-1.9C16.9,9.9,16,9.1,15,9.1z M15,9.1c-1,0-1.9,0.8-1.9,1.9
	c0,1,0.8,1.9,1.9,1.9s1.9-0.8,1.9-1.9C16.9,9.9,16,9.1,15,9.1z M15,4.1c-3.8,0-6.9,3-6.9,6.7c0,4.4,5,8.5,6.9,9.9
	c1.9-1.4,6.9-5.5,6.9-9.9C21.9,7.1,18.8,4.1,15,4.1z M15,15.3c-2.4,0-4.4-2-4.4-4.4c0-2.4,2-4.4,4.4-4.4s4.4,2,4.4,4.4
	C19.4,13.4,17.4,15.3,15,15.3z M15,9.1c-1,0-1.9,0.8-1.9,1.9c0,1,0.8,1.9,1.9,1.9s1.9-0.8,1.9-1.9C16.9,9.9,16,9.1,15,9.1z M15,9.1
	c-1,0-1.9,0.8-1.9,1.9c0,1,0.8,1.9,1.9,1.9s1.9-0.8,1.9-1.9C16.9,9.9,16,9.1,15,9.1z M15,9.1c-1,0-1.9,0.8-1.9,1.9
	c0,1,0.8,1.9,1.9,1.9s1.9-0.8,1.9-1.9C16.9,9.9,16,9.1,15,9.1z M15,9.1c-1,0-1.9,0.8-1.9,1.9c0,1,0.8,1.9,1.9,1.9s1.9-0.8,1.9-1.9
	C16.9,9.9,16,9.1,15,9.1z M15,50.2c-4,0-5.7,1.5-7.4,3.2c2,1.7,4.6,2.8,7.4,2.8s5.4-1.1,7.4-2.8C20.8,51.8,19.1,50.2,15,50.2z
	 M15,9.1c-1,0-1.9,0.8-1.9,1.9c0,1,0.8,1.9,1.9,1.9s1.9-0.8,1.9-1.9C16.9,9.9,16,9.1,15,9.1z M79.4,4.2l-3.5,2l4.7,0L79.4,4.2z
	 M82,15.6c-1.1,0-2,0.8-2,1.9c0,1,0.9,1.9,2,1.9h4.2v-3.8H82z M82,13.1h4.2V8.8H63.8v17.5h22.5v-4.4H82c-2.5,0-4.5-2-4.5-4.4
	C77.5,15.1,79.5,13.1,82,13.1z M15,9.1c-1,0-1.9,0.8-1.9,1.9c0,1,0.8,1.9,1.9,1.9s1.9-0.8,1.9-1.9C16.9,9.9,16,9.1,15,9.1z M15,9.1
	c-1,0-1.9,0.8-1.9,1.9c0,1,0.8,1.9,1.9,1.9s1.9-0.8,1.9-1.9C16.9,9.9,16,9.1,15,9.1z M15,9.1c-1,0-1.9,0.8-1.9,1.9
	c0,1,0.8,1.9,1.9,1.9s1.9-0.8,1.9-1.9C16.9,9.9,16,9.1,15,9.1z M15,9.1c-1,0-1.9,0.8-1.9,1.9c0,1,0.8,1.9,1.9,1.9s1.9-0.8,1.9-1.9
	C16.9,9.9,16,9.1,15,9.1z M15,9.1c-1,0-1.9,0.8-1.9,1.9c0,1,0.8,1.9,1.9,1.9s1.9-0.8,1.9-1.9C16.9,9.9,16,9.1,15,9.1z M15,9.1
	c-1,0-1.9,0.8-1.9,1.9c0,1,0.8,1.9,1.9,1.9s1.9-0.8,1.9-1.9C16.9,9.9,16,9.1,15,9.1z M15,4.1c-3.8,0-6.9,3-6.9,6.7
	c0,4.4,5,8.5,6.9,9.9c1.9-1.4,6.9-5.5,6.9-9.9C21.9,7.1,18.8,4.1,15,4.1z M15,15.3c-2.4,0-4.4-2-4.4-4.4c0-2.4,2-4.4,4.4-4.4
	s4.4,2,4.4,4.4C19.4,13.4,17.4,15.3,15,15.3z M15,9.1c-1,0-1.9,0.8-1.9,1.9c0,1,0.8,1.9,1.9,1.9s1.9-0.8,1.9-1.9
	C16.9,9.9,16,9.1,15,9.1z M15,9.1c-1,0-1.9,0.8-1.9,1.9c0,1,0.8,1.9,1.9,1.9s1.9-0.8,1.9-1.9C16.9,9.9,16,9.1,15,9.1z M15,9.1
	c-1,0-1.9,0.8-1.9,1.9c0,1,0.8,1.9,1.9,1.9s1.9-0.8,1.9-1.9C16.9,9.9,16,9.1,15,9.1z M15,9.1c-1,0-1.9,0.8-1.9,1.9
	c0,1,0.8,1.9,1.9,1.9s1.9-0.8,1.9-1.9C16.9,9.9,16,9.1,15,9.1z M15,9.1c-1,0-1.9,0.8-1.9,1.9c0,1,0.8,1.9,1.9,1.9s1.9-0.8,1.9-1.9
	C16.9,9.9,16,9.1,15,9.1z M38.1,20.6c-0.7,0-1.2,0.6-1.2,1.2s0.6,1.2,1.2,1.2s1.2-0.6,1.2-1.2S38.8,20.6,38.1,20.6z M33.8,6.9v13.8
	h0.8c0.5-1.5,1.9-2.5,3.5-2.5c1.6,0,3,1,3.5,2.5h5.9V6.9H33.8z M52.8,20.6c-0.7,0-1.2,0.6-1.2,1.2s0.6,1.2,1.2,1.2s1.2-0.6,1.2-1.2
	S53.5,20.6,52.8,20.6z M52.6,14.1H50v5.4c0.7-0.8,1.7-1.3,2.8-1.3c1.5,0,2.8,0.9,3.4,2.2v-2.7L52.6,14.1z M75,35.6l-11.6,20h23.2
	L75,35.6z M76.2,52.5c0,0.7-0.6,1.2-1.2,1.2s-1.2-0.6-1.2-1.2v-0.6c0-0.7,0.6-1.2,1.2-1.2s1.2,0.6,1.2,1.2V52.5z M75,49.4
	C75,49.4,75,49.4,75,49.4c-0.7,0-1.2-0.6-1.3-1.2v-6.2c0-0.7,0.6-1.2,1.2-1.2s1.2,0.6,1.2,1.2v6.2C76.2,48.8,75.7,49.4,75,49.4z
	 M113,37.1c-2.1-2.1-5-3.3-8-3.3c-3,0-5.8,1.2-8,3.3c-2.1,2.1-3.3,5-3.3,8c0,3,1.2,5.8,3.3,8c2.1,2.1,5,3.3,8,3.3c3,0,5.8-1.2,8-3.3
	c2.1-2.1,3.3-5,3.3-8C116.2,42,115.1,39.2,113,37.1z M112.1,42.2l-7.5,7.5c-0.2,0.2-0.6,0.4-0.9,0.4s-0.6-0.1-0.9-0.4l-3.8-3.8
	c-0.5-0.5-0.5-1.3,0-1.8s1.3-0.5,1.8,0l2.9,2.9l6.6-6.6c0.5-0.5,1.3-0.5,1.8,0C112.6,40.9,112.6,41.7,112.1,42.2z M103.1,21.3v5h3.8
	v-5H103.1z M96.2,3.8v2.5h17.5V3.8H96.2z M111.5,14.1l-0.2-0.1l-0.2,0.1c-1.8,1.1-4,1.1-5.8,0L105,14l-0.2,0.1c-1.8,1.1-4,1.1-5.8,0
	L98.8,14l-0.2,0.1c-0.7,0.4-1.5,0.7-2.3,0.8v11.4h4.4V20c0-0.7,0.5-1.2,1.2-1.2h6.2c0.7,0,1.2,0.6,1.2,1.2v6.2h4.4V14.9
	C113,14.8,112.2,14.5,111.5,14.1z M93.8,8.8v3L94,12c1,0.6,2.2,0.6,3.2,0l0.9-0.5c0.4-0.2,0.9-0.2,1.3,0l0.9,0.5
	c1,0.6,2.2,0.6,3.2,0l0.9-0.5c0.4-0.2,0.9-0.2,1.3,0l0.9,0.5c1,0.6,2.2,0.6,3.2,0l0.9-0.5c0.4-0.2,0.9-0.2,1.3,0l0.9,0.5
	c1,0.6,2.2,0.6,3.2,0l0.3-0.2v-3H93.8z M93.8,8.8v3L94,12c1,0.6,2.2,0.6,3.2,0l0.9-0.5c0.4-0.2,0.9-0.2,1.3,0l0.9,0.5
	c1,0.6,2.2,0.6,3.2,0l0.9-0.5c0.4-0.2,0.9-0.2,1.3,0l0.9,0.5c1,0.6,2.2,0.6,3.2,0l0.9-0.5c0.4-0.2,0.9-0.2,1.3,0l0.9,0.5
	c1,0.6,2.2,0.6,3.2,0l0.3-0.2v-3H93.8z M113,37.1c-2.1-2.1-5-3.3-8-3.3c-3,0-5.8,1.2-8,3.3c-2.1,2.1-3.3,5-3.3,8c0,3,1.2,5.8,3.3,8
	c2.1,2.1,5,3.3,8,3.3c3,0,5.8-1.2,8-3.3c2.1-2.1,3.3-5,3.3-8C116.2,42,115.1,39.2,113,37.1z M112.1,42.2l-7.5,7.5
	c-0.2,0.2-0.6,0.4-0.9,0.4s-0.6-0.1-0.9-0.4l-3.8-3.8c-0.5-0.5-0.5-1.3,0-1.8s1.3-0.5,1.8,0l2.9,2.9l6.6-6.6c0.5-0.5,1.3-0.5,1.8,0
	C112.6,40.9,112.6,41.7,112.1,42.2z M111.5,14.1l-0.2-0.1l-0.2,0.1c-1.8,1.1-4,1.1-5.8,0L105,14l-0.2,0.1c-1.8,1.1-4,1.1-5.8,0
	L98.8,14l-0.2,0.1c-0.7,0.4-1.5,0.7-2.3,0.8v11.4h4.4V20c0-0.7,0.5-1.2,1.2-1.2h6.2c0.7,0,1.2,0.6,1.2,1.2v6.2h4.4V14.9
	C113,14.8,112.2,14.5,111.5,14.1z M96.2,3.8v2.5h17.5V3.8H96.2z M103.1,21.3v5h3.8v-5H103.1z M75,35.6l-11.6,20h23.2L75,35.6z
	 M76.2,52.5c0,0.7-0.6,1.2-1.2,1.2s-1.2-0.6-1.2-1.2v-0.6c0-0.7,0.6-1.2,1.2-1.2s1.2,0.6,1.2,1.2V52.5z M75,49.4
	C75,49.4,75,49.4,75,49.4c-0.7,0-1.2-0.6-1.3-1.2v-6.2c0-0.7,0.6-1.2,1.2-1.2s1.2,0.6,1.2,1.2v6.2C76.2,48.8,75.7,49.4,75,49.4z
	 M82,13.1h4.2V8.8H63.8v17.5h22.5v-4.4H82c-2.5,0-4.5-2-4.5-4.4C77.5,15.1,79.5,13.1,82,13.1z M82,15.6c-1.1,0-2,0.8-2,1.9
	c0,1,0.9,1.9,2,1.9h4.2v-3.8H82z M79.4,4.2l-3.5,2l4.7,0L79.4,4.2z M52.6,14.1H50v5.4c0.7-0.8,1.7-1.3,2.8-1.3
	c1.5,0,2.8,0.9,3.4,2.2v-2.7L52.6,14.1z M52.8,20.6c-0.7,0-1.2,0.6-1.2,1.2s0.6,1.2,1.2,1.2s1.2-0.6,1.2-1.2S53.5,20.6,52.8,20.6z
	 M33.8,6.9v13.8h0.8c0.5-1.5,1.9-2.5,3.5-2.5c1.6,0,3,1,3.5,2.5h5.9V6.9H33.8z M38.1,20.6c-0.7,0-1.2,0.6-1.2,1.2s0.6,1.2,1.2,1.2
	s1.2-0.6,1.2-1.2S38.8,20.6,38.1,20.6z M15,9.1c-1,0-1.9,0.8-1.9,1.9c0,1,0.8,1.9,1.9,1.9s1.9-0.8,1.9-1.9C16.9,9.9,16,9.1,15,9.1z
	 M15,9.1c-1,0-1.9,0.8-1.9,1.9c0,1,0.8,1.9,1.9,1.9s1.9-0.8,1.9-1.9C16.9,9.9,16,9.1,15,9.1z M15,9.1c-1,0-1.9,0.8-1.9,1.9
	c0,1,0.8,1.9,1.9,1.9s1.9-0.8,1.9-1.9C16.9,9.9,16,9.1,15,9.1z M15,9.1c-1,0-1.9,0.8-1.9,1.9c0,1,0.8,1.9,1.9,1.9s1.9-0.8,1.9-1.9
	C16.9,9.9,16,9.1,15,9.1z M15,9.1c-1,0-1.9,0.8-1.9,1.9c0,1,0.8,1.9,1.9,1.9s1.9-0.8,1.9-1.9C16.9,9.9,16,9.1,15,9.1z M15,9.1
	c-1,0-1.9,0.8-1.9,1.9c0,1,0.8,1.9,1.9,1.9s1.9-0.8,1.9-1.9C16.9,9.9,16,9.1,15,9.1z M15,4.1c-3.8,0-6.9,3-6.9,6.7
	c0,4.4,5,8.5,6.9,9.9c1.9-1.4,6.9-5.5,6.9-9.9C21.9,7.1,18.8,4.1,15,4.1z M15,15.3c-2.4,0-4.4-2-4.4-4.4c0-2.4,2-4.4,4.4-4.4
	s4.4,2,4.4,4.4C19.4,13.4,17.4,15.3,15,15.3z M15,9.1c-1,0-1.9,0.8-1.9,1.9c0,1,0.8,1.9,1.9,1.9s1.9-0.8,1.9-1.9
	C16.9,9.9,16,9.1,15,9.1z M15,9.1c-1,0-1.9,0.8-1.9,1.9c0,1,0.8,1.9,1.9,1.9s1.9-0.8,1.9-1.9C16.9,9.9,16,9.1,15,9.1z M15,9.1
	c-1,0-1.9,0.8-1.9,1.9c0,1,0.8,1.9,1.9,1.9s1.9-0.8,1.9-1.9C16.9,9.9,16,9.1,15,9.1z M15,9.1c-1,0-1.9,0.8-1.9,1.9
	c0,1,0.8,1.9,1.9,1.9s1.9-0.8,1.9-1.9C16.9,9.9,16,9.1,15,9.1z M15,9.1c-1,0-1.9,0.8-1.9,1.9c0,1,0.8,1.9,1.9,1.9s1.9-0.8,1.9-1.9
	C16.9,9.9,16,9.1,15,9.1z M15,9.1c-1,0-1.9,0.8-1.9,1.9c0,1,0.8,1.9,1.9,1.9s1.9-0.8,1.9-1.9C16.9,9.9,16,9.1,15,9.1z M15,9.1
	c-1,0-1.9,0.8-1.9,1.9c0,1,0.8,1.9,1.9,1.9s1.9-0.8,1.9-1.9C16.9,9.9,16,9.1,15,9.1z M79.4,4.2l-3.5,2l4.7,0L79.4,4.2z M82,15.6
	c-1.1,0-2,0.8-2,1.9c0,1,0.9,1.9,2,1.9h4.2v-3.8H82z M82,13.1h4.2V8.8H63.8v17.5h22.5v-4.4H82c-2.5,0-4.5-2-4.5-4.4
	C77.5,15.1,79.5,13.1,82,13.1z M38.1,20.6c-0.7,0-1.2,0.6-1.2,1.2s0.6,1.2,1.2,1.2s1.2-0.6,1.2-1.2S38.8,20.6,38.1,20.6z M33.8,6.9
	v13.8h0.8c0.5-1.5,1.9-2.5,3.5-2.5c1.6,0,3,1,3.5,2.5h5.9V6.9H33.8z M52.8,20.6c-0.7,0-1.2,0.6-1.2,1.2s0.6,1.2,1.2,1.2
	s1.2-0.6,1.2-1.2S53.5,20.6,52.8,20.6z M52.6,14.1H50v5.4c0.7-0.8,1.7-1.3,2.8-1.3c1.5,0,2.8,0.9,3.4,2.2v-2.7L52.6,14.1z M75,35.6
	l-11.6,20h23.2L75,35.6z M76.2,52.5c0,0.7-0.6,1.2-1.2,1.2s-1.2-0.6-1.2-1.2v-0.6c0-0.7,0.6-1.2,1.2-1.2s1.2,0.6,1.2,1.2V52.5z
	 M75,49.4C75,49.4,75,49.4,75,49.4c-0.7,0-1.2-0.6-1.3-1.2v-6.2c0-0.7,0.6-1.2,1.2-1.2s1.2,0.6,1.2,1.2v6.2
	C76.2,48.8,75.7,49.4,75,49.4z M113,37.1c-2.1-2.1-5-3.3-8-3.3c-3,0-5.8,1.2-8,3.3c-2.1,2.1-3.3,5-3.3,8c0,3,1.2,5.8,3.3,8
	c2.1,2.1,5,3.3,8,3.3c3,0,5.8-1.2,8-3.3c2.1-2.1,3.3-5,3.3-8C116.2,42,115.1,39.2,113,37.1z M112.1,42.2l-7.5,7.5
	c-0.2,0.2-0.6,0.4-0.9,0.4s-0.6-0.1-0.9-0.4l-3.8-3.8c-0.5-0.5-0.5-1.3,0-1.8s1.3-0.5,1.8,0l2.9,2.9l6.6-6.6c0.5-0.5,1.3-0.5,1.8,0
	C112.6,40.9,112.6,41.7,112.1,42.2z M103.1,21.3v5h3.8v-5H103.1z M96.2,3.8v2.5h17.5V3.8H96.2z M111.5,14.1l-0.2-0.1l-0.2,0.1
	c-1.8,1.1-4,1.1-5.8,0L105,14l-0.2,0.1c-1.8,1.1-4,1.1-5.8,0L98.8,14l-0.2,0.1c-0.7,0.4-1.5,0.7-2.3,0.8v11.4h4.4V20
	c0-0.7,0.5-1.2,1.2-1.2h6.2c0.7,0,1.2,0.6,1.2,1.2v6.2h4.4V14.9C113,14.8,112.2,14.5,111.5,14.1z M93.8,8.8v3L94,12
	c1,0.6,2.2,0.6,3.2,0l0.9-0.5c0.4-0.2,0.9-0.2,1.3,0l0.9,0.5c1,0.6,2.2,0.6,3.2,0l0.9-0.5c0.4-0.2,0.9-0.2,1.3,0l0.9,0.5
	c1,0.6,2.2,0.6,3.2,0l0.9-0.5c0.4-0.2,0.9-0.2,1.3,0l0.9,0.5c1,0.6,2.2,0.6,3.2,0l0.3-0.2v-3H93.8z M93.8,8.8v3L94,12
	c1,0.6,2.2,0.6,3.2,0l0.9-0.5c0.4-0.2,0.9-0.2,1.3,0l0.9,0.5c1,0.6,2.2,0.6,3.2,0l0.9-0.5c0.4-0.2,0.9-0.2,1.3,0l0.9,0.5
	c1,0.6,2.2,0.6,3.2,0l0.9-0.5c0.4-0.2,0.9-0.2,1.3,0l0.9,0.5c1,0.6,2.2,0.6,3.2,0l0.3-0.2v-3H93.8z M113,37.1c-2.1-2.1-5-3.3-8-3.3
	c-3,0-5.8,1.2-8,3.3c-2.1,2.1-3.3,5-3.3,8c0,3,1.2,5.8,3.3,8c2.1,2.1,5,3.3,8,3.3c3,0,5.8-1.2,8-3.3c2.1-2.1,3.3-5,3.3-8
	C116.2,42,115.1,39.2,113,37.1z M112.1,42.2l-7.5,7.5c-0.2,0.2-0.6,0.4-0.9,0.4s-0.6-0.1-0.9-0.4l-3.8-3.8c-0.5-0.5-0.5-1.3,0-1.8
	s1.3-0.5,1.8,0l2.9,2.9l6.6-6.6c0.5-0.5,1.3-0.5,1.8,0C112.6,40.9,112.6,41.7,112.1,42.2z M111.5,14.1l-0.2-0.1l-0.2,0.1
	c-1.8,1.1-4,1.1-5.8,0L105,14l-0.2,0.1c-1.8,1.1-4,1.1-5.8,0L98.8,14l-0.2,0.1c-0.7,0.4-1.5,0.7-2.3,0.8v11.4h4.4V20
	c0-0.7,0.5-1.2,1.2-1.2h6.2c0.7,0,1.2,0.6,1.2,1.2v6.2h4.4V14.9C113,14.8,112.2,14.5,111.5,14.1z M96.2,3.8v2.5h17.5V3.8H96.2z
	 M103.1,21.3v5h3.8v-5H103.1z M75,35.6l-11.6,20h23.2L75,35.6z M76.2,52.5c0,0.7-0.6,1.2-1.2,1.2s-1.2-0.6-1.2-1.2v-0.6
	c0-0.7,0.6-1.2,1.2-1.2s1.2,0.6,1.2,1.2V52.5z M75,49.4C75,49.4,75,49.4,75,49.4c-0.7,0-1.2-0.6-1.3-1.2v-6.2c0-0.7,0.6-1.2,1.2-1.2
	s1.2,0.6,1.2,1.2v6.2C76.2,48.8,75.7,49.4,75,49.4z M82,13.1h4.2V8.8H63.8v17.5h22.5v-4.4H82c-2.5,0-4.5-2-4.5-4.4
	C77.5,15.1,79.5,13.1,82,13.1z M82,15.6c-1.1,0-2,0.8-2,1.9c0,1,0.9,1.9,2,1.9h4.2v-3.8H82z M79.4,4.2l-3.5,2l4.7,0L79.4,4.2z
	 M52.6,14.1H50v5.4c0.7-0.8,1.7-1.3,2.8-1.3c1.5,0,2.8,0.9,3.4,2.2v-2.7L52.6,14.1z M52.8,20.6c-0.7,0-1.2,0.6-1.2,1.2
	s0.6,1.2,1.2,1.2s1.2-0.6,1.2-1.2S53.5,20.6,52.8,20.6z M33.8,6.9v13.8h0.8c0.5-1.5,1.9-2.5,3.5-2.5c1.6,0,3,1,3.5,2.5h5.9V6.9H33.8
	z M38.1,20.6c-0.7,0-1.2,0.6-1.2,1.2s0.6,1.2,1.2,1.2s1.2-0.6,1.2-1.2S38.8,20.6,38.1,20.6z M75,35.6l-11.6,20h23.2L75,35.6z
	 M76.2,52.5c0,0.7-0.6,1.2-1.2,1.2s-1.2-0.6-1.2-1.2v-0.6c0-0.7,0.6-1.2,1.2-1.2s1.2,0.6,1.2,1.2V52.5z M75,49.4
	C75,49.4,75,49.4,75,49.4c-0.7,0-1.2-0.6-1.3-1.2v-6.2c0-0.7,0.6-1.2,1.2-1.2s1.2,0.6,1.2,1.2v6.2C76.2,48.8,75.7,49.4,75,49.4z
	 M113,37.1c-2.1-2.1-5-3.3-8-3.3c-3,0-5.8,1.2-8,3.3c-2.1,2.1-3.3,5-3.3,8c0,3,1.2,5.8,3.3,8c2.1,2.1,5,3.3,8,3.3c3,0,5.8-1.2,8-3.3
	c2.1-2.1,3.3-5,3.3-8C116.2,42,115.1,39.2,113,37.1z M112.1,42.2l-7.5,7.5c-0.2,0.2-0.6,0.4-0.9,0.4s-0.6-0.1-0.9-0.4l-3.8-3.8
	c-0.5-0.5-0.5-1.3,0-1.8s1.3-0.5,1.8,0l2.9,2.9l6.6-6.6c0.5-0.5,1.3-0.5,1.8,0C112.6,40.9,112.6,41.7,112.1,42.2z M103.1,21.3v5h3.8
	v-5H103.1z M96.2,3.8v2.5h17.5V3.8H96.2z M111.5,14.1l-0.2-0.1l-0.2,0.1c-1.8,1.1-4,1.1-5.8,0L105,14l-0.2,0.1c-1.8,1.1-4,1.1-5.8,0
	L98.8,14l-0.2,0.1c-0.7,0.4-1.5,0.7-2.3,0.8v11.4h4.4V20c0-0.7,0.5-1.2,1.2-1.2h6.2c0.7,0,1.2,0.6,1.2,1.2v6.2h4.4V14.9
	C113,14.8,112.2,14.5,111.5,14.1z M93.8,8.8v3L94,12c1,0.6,2.2,0.6,3.2,0l0.9-0.5c0.4-0.2,0.9-0.2,1.3,0l0.9,0.5
	c1,0.6,2.2,0.6,3.2,0l0.9-0.5c0.4-0.2,0.9-0.2,1.3,0l0.9,0.5c1,0.6,2.2,0.6,3.2,0l0.9-0.5c0.4-0.2,0.9-0.2,1.3,0l0.9,0.5
	c1,0.6,2.2,0.6,3.2,0l0.3-0.2v-3H93.8z M93.8,8.8v3L94,12c1,0.6,2.2,0.6,3.2,0l0.9-0.5c0.4-0.2,0.9-0.2,1.3,0l0.9,0.5
	c1,0.6,2.2,0.6,3.2,0l0.9-0.5c0.4-0.2,0.9-0.2,1.3,0l0.9,0.5c1,0.6,2.2,0.6,3.2,0l0.9-0.5c0.4-0.2,0.9-0.2,1.3,0l0.9,0.5
	c1,0.6,2.2,0.6,3.2,0l0.3-0.2v-3H93.8z M113,37.1c-2.1-2.1-5-3.3-8-3.3c-3,0-5.8,1.2-8,3.3c-2.1,2.1-3.3,5-3.3,8c0,3,1.2,5.8,3.3,8
	c2.1,2.1,5,3.3,8,3.3c3,0,5.8-1.2,8-3.3c2.1-2.1,3.3-5,3.3-8C116.2,42,115.1,39.2,113,37.1z M112.1,42.2l-7.5,7.5
	c-0.2,0.2-0.6,0.4-0.9,0.4s-0.6-0.1-0.9-0.4l-3.8-3.8c-0.5-0.5-0.5-1.3,0-1.8s1.3-0.5,1.8,0l2.9,2.9l6.6-6.6c0.5-0.5,1.3-0.5,1.8,0
	C112.6,40.9,112.6,41.7,112.1,42.2z M111.5,14.1l-0.2-0.1l-0.2,0.1c-1.8,1.1-4,1.1-5.8,0L105,14l-0.2,0.1c-1.8,1.1-4,1.1-5.8,0
	L98.8,14l-0.2,0.1c-0.7,0.4-1.5,0.7-2.3,0.8v11.4h4.4V20c0-0.7,0.5-1.2,1.2-1.2h6.2c0.7,0,1.2,0.6,1.2,1.2v6.2h4.4V14.9
	C113,14.8,112.2,14.5,111.5,14.1z M96.2,3.8v2.5h17.5V3.8H96.2z M103.1,21.3v5h3.8v-5H103.1z M75,35.6l-11.6,20h23.2L75,35.6z
	 M76.2,52.5c0,0.7-0.6,1.2-1.2,1.2s-1.2-0.6-1.2-1.2v-0.6c0-0.7,0.6-1.2,1.2-1.2s1.2,0.6,1.2,1.2V52.5z M75,49.4
	C75,49.4,75,49.4,75,49.4c-0.7,0-1.2-0.6-1.3-1.2v-6.2c0-0.7,0.6-1.2,1.2-1.2s1.2,0.6,1.2,1.2v6.2C76.2,48.8,75.7,49.4,75,49.4z
	 M75,35.6l-11.6,20h23.2L75,35.6z M76.2,52.5c0,0.7-0.6,1.2-1.2,1.2s-1.2-0.6-1.2-1.2v-0.6c0-0.7,0.6-1.2,1.2-1.2s1.2,0.6,1.2,1.2
	V52.5z M75,49.4C75,49.4,75,49.4,75,49.4c-0.7,0-1.2-0.6-1.3-1.2v-6.2c0-0.7,0.6-1.2,1.2-1.2s1.2,0.6,1.2,1.2v6.2
	C76.2,48.8,75.7,49.4,75,49.4z M113,37.1c-2.1-2.1-5-3.3-8-3.3c-3,0-5.8,1.2-8,3.3c-2.1,2.1-3.3,5-3.3,8c0,3,1.2,5.8,3.3,8
	c2.1,2.1,5,3.3,8,3.3c3,0,5.8-1.2,8-3.3c2.1-2.1,3.3-5,3.3-8C116.2,42,115.1,39.2,113,37.1z M112.1,42.2l-7.5,7.5
	c-0.2,0.2-0.6,0.4-0.9,0.4s-0.6-0.1-0.9-0.4l-3.8-3.8c-0.5-0.5-0.5-1.3,0-1.8s1.3-0.5,1.8,0l2.9,2.9l6.6-6.6c0.5-0.5,1.3-0.5,1.8,0
	C112.6,40.9,112.6,41.7,112.1,42.2z M113,37.1c-2.1-2.1-5-3.3-8-3.3c-3,0-5.8,1.2-8,3.3c-2.1,2.1-3.3,5-3.3,8c0,3,1.2,5.8,3.3,8
	c2.1,2.1,5,3.3,8,3.3c3,0,5.8-1.2,8-3.3c2.1-2.1,3.3-5,3.3-8C116.2,42,115.1,39.2,113,37.1z M112.1,42.2l-7.5,7.5
	c-0.2,0.2-0.6,0.4-0.9,0.4s-0.6-0.1-0.9-0.4l-3.8-3.8c-0.5-0.5-0.5-1.3,0-1.8s1.3-0.5,1.8,0l2.9,2.9l6.6-6.6c0.5-0.5,1.3-0.5,1.8,0
	C112.6,40.9,112.6,41.7,112.1,42.2z M75,35.6l-11.6,20h23.2L75,35.6z M76.2,52.5c0,0.7-0.6,1.2-1.2,1.2s-1.2-0.6-1.2-1.2v-0.6
	c0-0.7,0.6-1.2,1.2-1.2s1.2,0.6,1.2,1.2V52.5z M75,49.4C75,49.4,75,49.4,75,49.4c-0.7,0-1.2-0.6-1.3-1.2v-6.2c0-0.7,0.6-1.2,1.2-1.2
	s1.2,0.6,1.2,1.2v6.2C76.2,48.8,75.7,49.4,75,49.4z"/>
</svg>
