<svg id="Sappo_location_svg" xmlns="http://www.w3.org/2000/svg" width="18px" height="18px" viewBox="0 0 18 18">
<g>
	<g>
		<path class="cls-1" d="M9,18c-0.2,0-0.4-0.1-0.6-0.2c-0.3-0.2-6.9-4.7-6.9-10.2C1.5,3.4,4.8,0,9,0s7.5,3.4,7.5,7.5c0,5.5-6.6,10-6.9,10.2
			C9.4,17.9,9.2,18,9,18z M9,2.3c-2.9,0-5.3,2.4-5.3,5.3c0,3.4,3.8,6.7,5.3,7.9c1.5-1.2,5.3-4.4,5.3-7.9C14.3,4.7,11.9,2.3,9,2.3z"
			/>
	</g>
	<g>
		<path class="cls-1" d="M9,10.8c-1.8,0-3.2-1.5-3.2-3.2S7.2,4.3,9,4.3s3.2,1.5,3.2,3.2S10.8,10.8,9,10.8z M9,6.6c-0.5,0-1,0.4-1,1s0.4,1,1,1
			s1-0.4,1-1S9.5,6.6,9,6.6z"/>
	</g>
</g>
</svg>
