<svg width="21" height="17" viewBox="0 0 21 17" fill="none" xmlns="http://www.w3.org/2000/svg">
<path d="M16.1035 14.8374L17.6955 13.2454C18.5993 12.3415 19.107 11.1156 19.107 9.8374C19.107 8.55918 18.5993 7.33331 17.6955 6.4294L13.1035 1.8374M5.10375 5.8374H5.09375M1.10352 3.8374V8.0094C1.10363 8.53979 1.31442 9.04842 1.68952 9.4234L7.39952 15.1334C7.85147 15.5853 8.46441 15.8391 9.10352 15.8391C9.74262 15.8391 10.3556 15.5853 10.8075 15.1334L14.3995 11.5414C14.8514 11.0895 15.1053 10.4765 15.1053 9.8374C15.1053 9.19829 14.8514 8.58535 14.3995 8.1334L8.68952 2.4234C8.31453 2.0483 7.80591 1.83752 7.27552 1.8374H3.10352C2.57308 1.8374 2.06437 2.04812 1.6893 2.42319C1.31423 2.79826 1.10352 3.30697 1.10352 3.8374Z" stroke="#01AEF0" stroke-width="2" stroke-linecap="round" stroke-linejoin="round"/>
</svg>
