<svg width="18" height="18" viewBox="0 0 18 18" fill="none" xmlns="http://www.w3.org/2000/svg">
<path fill-rule="evenodd" clip-rule="evenodd" d="M2 0C0.89543 0 0 0.895431 0 2V6C0 7.10457 0.895431 8 2 8H6C7.10457 8 8 7.10457 8 6V2C8 0.89543 7.10457 0 6 0H2ZM2 2H6V6H2V2Z" fill="black"/>
<path fill-rule="evenodd" clip-rule="evenodd" d="M12 0C10.8954 0 10 0.895431 10 2V6C10 7.10457 10.8954 8 12 8H16C17.1046 8 18 7.10457 18 6V2C18 0.89543 17.1046 0 16 0H12ZM12 2H16V6H12V2Z" fill="black"/>
<path fill-rule="evenodd" clip-rule="evenodd" d="M0 12C0 10.8954 0.89543 10 2 10H6C7.10457 10 8 10.8954 8 12V16C8 17.1046 7.10457 18 6 18H2C0.895431 18 0 17.1046 0 16V12ZM6 12H2V16H6V12Z" fill="black"/>
<path fill-rule="evenodd" clip-rule="evenodd" d="M12 10C10.8954 10 10 10.8954 10 12V16C10 17.1046 10.8954 18 12 18H16C17.1046 18 18 17.1046 18 16V12C18 10.8954 17.1046 10 16 10H12ZM12 12H16V16H12V12Z" fill="black"/>
</svg>
