<svg width="20" height="18" viewBox="0 0 20 18" fill="none" xmlns="http://www.w3.org/2000/svg">
<path fill-rule="evenodd" clip-rule="evenodd" d="M10 2C10 1.44772 10.4477 1 11 1H19C19.5523 1 20 1.44772 20 2C20 2.55228 19.5523 3 19 3H11C10.4477 3 10 2.55228 10 2ZM10 6C10 5.44772 10.4477 5 11 5H16C16.5523 5 17 5.44772 17 6C17 6.55228 16.5523 7 16 7H11C10.4477 7 10 6.55228 10 6ZM10 12C10 11.4477 10.4477 11 11 11H19C19.5523 11 20 11.4477 20 12C20 12.5523 19.5523 13 19 13H11C10.4477 13 10 12.5523 10 12ZM10 16C10 15.4477 10.4477 15 11 15H16C16.5523 15 17 15.4477 17 16C17 16.5523 16.5523 17 16 17H11C10.4477 17 10 16.5523 10 16ZM0 2C0 0.895431 0.89543 0 2 0H6C7.10457 0 8 0.89543 8 2V6C8 7.10457 7.10457 8 6 8H2C0.895431 8 0 7.10457 0 6V2ZM6 2H2V6H6V2ZM0 12C0 10.8954 0.89543 10 2 10H6C7.10457 10 8 10.8954 8 12V16C8 17.1046 7.10457 18 6 18H2C0.895431 18 0 17.1046 0 16V12ZM6 12H2V16H6V12Z" fill="black"/>
</svg>
