<svg width="162" height="33" viewBox="0 0 162 33" fill="none" xmlns="http://www.w3.org/2000/svg">
<path fill-rule="evenodd" clip-rule="evenodd" d="M7.38859 3.10596H18.7542V6.56586H11.685C9.92568 6.56586 8.34656 6.64573 8.34656 8.24464C8.34656 11.2773 12.4448 10.3933 14.6607 10.3933C19.7874 10.3933 19.5172 14.7713 19.5172 14.7713L19.5179 17.6574C19.5187 19.9999 17.5816 21.9121 15.2153 21.9168L3.24651 21.9431L3.18542 18.4088H10.9189C14.1939 18.4088 14.215 17.7001 14.2573 16.7781C14.403 13.664 10.5171 14.541 8.38651 14.3324C4.75123 14.1184 3.08594 12.0698 3.08594 10.2049V7.36531C3.08594 5.02278 5.02225 3.10596 7.38859 3.10596Z" fill="#01AEF0"/>
<path fill-rule="evenodd" clip-rule="evenodd" d="M35.3337 3.16797H24.6441V6.55964H33.7695C35.3337 6.55964 35.3337 7.31412 35.3337 7.88637V10.5088H27.8C25.2574 10.5088 23.1777 12.5676 23.1777 15.0853V18.5173C23.1777 20.4047 24.7373 21.9493 26.6446 21.9493C29.3156 21.9493 34.3828 22.5836 34.3421 18.729C32.347 18.7267 28.7078 19.1361 28.7078 17.272V15.7072C28.7078 14.5596 29.6564 13.6213 30.8149 13.6213H35.3337V16.9866V18.2638V19.9542V21.9485H40.968C40.968 16.8184 40.968 13.4484 40.968 8.31905C40.968 6.33942 41.4505 3.16797 35.3337 3.16797Z" fill="#01AEF0"/>
<path fill-rule="evenodd" clip-rule="evenodd" d="M69.4082 3.16797H74.3994H75.0425H82.4501C85.7838 3.16797 88.5105 5.86797 88.5105 9.16736V15.9491C88.5105 19.2485 85.783 21.9493 82.4501 21.9493H78.8211C76.1062 21.9493 76.0341 18.7732 76.0341 18.7732C76.0341 18.7732 76.4681 18.7724 76.7446 18.7724H80.5772C81.8415 18.7724 82.8762 17.6062 82.8762 16.181V9.19605C82.8762 7.77084 81.8415 6.60461 80.5772 6.60461H75.0425V16.6036V17.5946V20.8575V22.8868V29.8942H69.4082V3.16797Z" fill="#01AEF0"/>
<path fill-rule="evenodd" clip-rule="evenodd" d="M45.9463 3.16797H50.9375H51.5805H58.9882C62.3211 3.16797 65.0486 5.86797 65.0486 9.16736V15.9491C65.0486 19.2485 62.3211 21.9493 58.9882 21.9493H55.3592C52.6443 21.9493 52.5722 18.7732 52.5722 18.7732C52.5722 18.7732 53.0069 18.7724 53.2834 18.7724H57.1153C58.3803 18.7724 59.4151 17.6062 59.4151 16.181V9.19605C59.4151 7.77084 58.3803 6.60461 57.1153 6.60461H51.5813V16.6036V17.5946V20.8575V22.8868V29.8942H45.9471V3.16797H45.9463Z" fill="#01AEF0"/>
<path fill-rule="evenodd" clip-rule="evenodd" d="M99.9642 3.16797H103.762C107.938 3.16797 111.356 6.55111 111.356 10.6856V14.8372C111.356 18.9717 107.939 22.3556 103.762 22.3556H99.9642C95.7869 22.3556 92.3701 18.9725 92.3701 14.8372V10.6856C92.3701 6.55033 95.7869 3.16797 99.9642 3.16797ZM100.635 6.55886H103.09C105.79 6.55886 105.722 8.72692 105.722 11.3757V14.0362C105.722 16.6858 105.79 18.8539 103.09 18.8539H100.635C97.9354 18.8539 98.0044 16.6858 98.0044 14.0362V11.3757C98.0036 8.7277 97.9347 6.55886 100.635 6.55886Z" fill="#01AEF0"/>
<path fill-rule="evenodd" clip-rule="evenodd" d="M115.215 16.6763H121.234V21.9483H115.215V16.6763Z" fill="#01AEF0"/>
<path fill-rule="evenodd" clip-rule="evenodd" d="M138.217 3.16797V7.6995C135.183 7.6995 133.424 7.65918 132.128 8.54858C132.128 6.16107 132.025 3.16797 138.217 3.16797ZM125.634 3.16797H131.268V5.12279V9.52638V9.96604V21.9485H125.634V3.16797Z" fill="#01AEF0"/>
<path fill-rule="evenodd" clip-rule="evenodd" d="M140.955 3.16797H146.589V16.7657C146.589 17.8683 147.501 18.7709 148.615 18.7709H151.792C151.985 18.7709 152.351 18.7748 152.351 18.7748C152.34 22.5014 149.632 21.9074 146.361 21.9485C143.389 21.9858 140.955 19.5401 140.955 16.5958V3.16797ZM153.342 3.16797H158.976V21.9493H153.342C153.342 15.6878 153.342 9.4279 153.342 3.16797Z" fill="#01AEF0"/>
</svg>
