<svg width="272" height="48" viewBox="0 0 272 48" fill="none" xmlns="http://www.w3.org/2000/svg">
<g clip-path="url(#clip0_1279_1267)">
<path d="M23.9999 47.9511C37.2278 47.9511 47.9511 37.2278 47.9511 23.9999C47.9511 10.7721 37.2278 0.0488281 23.9999 0.0488281C10.7721 0.0488281 0.0488281 10.7721 0.0488281 23.9999C0.0488281 37.2278 10.7721 47.9511 23.9999 47.9511Z" fill="white"/>
<path d="M32.6669 39.0355H27.4091V13.0311H25.0669C20.7736 13.0311 18.5247 15.1777 18.5247 18.3822C18.5247 22.0177 20.0758 23.7022 23.2847 25.8488L25.9291 27.6311L18.3291 39.0311H12.6758L19.5158 28.8533C15.5824 26.0444 13.3691 23.3022 13.3691 18.6755C13.3691 12.8933 17.4002 8.95996 25.0313 8.95996H32.6313V39.0266H32.6669V39.0355Z" fill="#00ABEF"/>
</g>
<path d="M77.9998 10L82.6351 19.3919L93 20.8982L85.4999 28.2089L87.2703 38.5315L77.9998 33.6576L68.7294 38.5315L70.5001 28.2089L63 20.8982L73.3646 19.3919L77.9998 10Z" fill="white"/>
<path d="M122 10L126.635 19.3919L137 20.8982L129.5 28.2089L131.27 38.5315L122 33.6576L112.729 38.5315L114.5 28.2089L107 20.8982L117.365 19.3919L122 10Z" fill="white"/>
<path d="M166 10L170.635 19.3919L181 20.8982L173.5 28.2089L175.27 38.5315L166 33.6576L156.729 38.5315L158.5 28.2089L151 20.8982L161.365 19.3919L166 10Z" fill="white"/>
<path d="M210 10L214.635 19.3919L225 20.8982L217.5 28.2089L219.27 38.5315L210 33.6576L200.729 38.5315L202.5 28.2089L195 20.8982L205.365 19.3919L210 10Z" fill="white"/>
<path d="M254 10L258.635 19.3919L269 20.8982L261.5 28.2089L263.27 38.5315L254 33.6576L244.729 38.5315L246.5 28.2089L239 20.8982L249.365 19.3919L254 10Z" fill="white"/>
<defs>
<clipPath id="clip0_1279_1267">
<rect width="48" height="48" fill="white"/>
</clipPath>
</defs>
</svg>
