<svg width="72" height="72" viewBox="0 0 72 72" fill="none" xmlns="http://www.w3.org/2000/svg">
<rect width="72" height="72" rx="32" fill="#00ABEF"/>
<path d="M38 37C37.1667 37 36.4583 36.7083 35.875 36.125C35.2917 35.5417 35 34.8333 35 34C35 33.1667 35.2917 32.4583 35.875 31.875C36.4583 31.2917 37.1667 31 38 31C38.8333 31 39.5417 31.2917 40.125 31.875C40.7083 32.4583 41 33.1667 41 34C41 34.8333 40.7083 35.5417 40.125 36.125C39.5417 36.7083 38.8333 37 38 37ZM31 40C30.45 40 29.9792 39.8042 29.5875 39.4125C29.1958 39.0208 29 38.55 29 38V30C29 29.45 29.1958 28.9792 29.5875 28.5875C29.9792 28.1958 30.45 28 31 28H45C45.55 28 46.0208 28.1958 46.4125 28.5875C46.8042 28.9792 47 29.45 47 30V38C47 38.55 46.8042 39.0208 46.4125 39.4125C46.0208 39.8042 45.55 40 45 40H31ZM33 38H43C43 37.45 43.1958 36.9792 43.5875 36.5875C43.9792 36.1958 44.45 36 45 36V32C44.45 32 43.9792 31.8042 43.5875 31.4125C43.1958 31.0208 43 30.55 43 30H33C33 30.55 32.8042 31.0208 32.4125 31.4125C32.0208 31.8042 31.55 32 31 32V36C31.55 36 32.0208 36.1958 32.4125 36.5875C32.8042 36.9792 33 37.45 33 38ZM44 44H27C26.45 44 25.9792 43.8042 25.5875 43.4125C25.1958 43.0208 25 42.55 25 42V31H27V42H44V44Z" fill="white"/>
</svg>
