<svg width="72" height="72" viewBox="0 0 72 72" fill="none" xmlns="http://www.w3.org/2000/svg">
<rect width="72" height="72" rx="32" fill="#00ABEF"/>
<path d="M46 30V42C46 42.55 45.8042 43.0208 45.4125 43.4125C45.0208 43.8042 44.55 44 44 44H28C27.45 44 26.9792 43.8042 26.5875 43.4125C26.1958 43.0208 26 42.55 26 42V30C26 29.45 26.1958 28.9792 26.5875 28.5875C26.9792 28.1958 27.45 28 28 28H44C44.55 28 45.0208 28.1958 45.4125 28.5875C45.8042 28.9792 46 29.45 46 30ZM28 32H44V30H28V32ZM28 36V42H44V36H28Z" fill="white"/>
</svg>
